<?xml version="1.0" standalone="no"?>
<!--Created with Sketsa SVG Editor (http://www.kiyut.com)-->
<svg contentScriptType="text/ecmascript"
	baseProfile="full" zoomAndPan="magnify" contentStyleType="text/css"
	width="550.0" height="7241.0" onload="init()"
	preserveAspectRatio="xMidYMid meet"
	xmlns="http://www.w3.org/2000/svg" version="1.0"
	xmlns:xlink="http://www.w3.org/1999/xlink"
	xmlns:slice="http://www.reprap.org/slice">
	<script type="text/ecmascript"><![CDATA[
//Meta data variables 
units='mm';
	decimalPlacesCarried = 3
	layerThickness = 0.4
	perimeterWidth = 0.72
	procedureDone = "carve"
	extrusionStart = 1
sliceMinX = 0;
sliceMaxX = 0;
sliceMinY = 0;
sliceMaxY = 0;
sliceMinZ = 0;
sliceMaxZ = 0;

//Control var's
currentLayer = 0; //Number of currently viewed layer (zero index)
javascriptControlBoxX = 510;
javascriptControlBoxY = 95;
sliding = false;

//Display var's
margin = 20;
scale = 1; //unitScale * zoomScale
sliceDimensionX = null;
sliceDimensionY = null;
sliceDimensionZ = null;
svgMinWidth = javascriptControlBoxX + 2 * margin; //Width of control box and margins
textHeight = 22.5;
unitScale = 3.7; //mm = 1; inch = 25.4
zoomScale = 1; //Default 1:1 may need smaller scale for large objects

//No javascript control var
noJavascriptControlBoxY = 110;

var layers = [];

function changeScale(newScale){
	zoomScale = newScale
	scale = unitScale * zoomScale
	viewSingle()
	setText('scaleNum','1 : ' + 1/zoomScale);
	if(zoomScale >=1 ) //dont scale line thickness for large display scale 
		document.getElementById('layerData').setAttributeNS(null,'stroke-width',2/(scale))
}

function displayLayer(layerNum){
	if (layerNum >= 0 && layerNum < layers.length) {
		layers[currentLayer].setAttributeNS(null,'visibility','hidden');
		layers[layerNum].setAttributeNS(null,'visibility','visible');
		currentLayer = layerNum;
		setText('layerNum',currentLayer);
		//Slider
		if (!sliding) {
			// 150 = width of sliderbar 14 = width circle
			x = (150 - 14) / (layers.length - 1) * currentLayer
			document.getElementById('thumb').setAttributeNS(null,'cx',x + 17)
		}
	}
}

function init(){
	//Hide no javascript control box
	document.getElementById('noJavascriptControls').setAttributeNS(null,'visibility','hidden')
	
	//Get meta data
	mD = document.getElementsByTagNameNS('http://www.reprap.org/slice','layers')[0];
	units = mD.getAttributeNS(null,'units');
	sliceMinX = mD.getAttribute('minX') * 1;
	sliceMaxX = mD.getAttribute('maxX') * 1;
	sliceMinY = mD.getAttribute('minY') * 1;
	sliceMaxY = mD.getAttribute('maxY') * 1;
	sliceMinZ = mD.getAttribute('minZ') * 1;
	sliceMaxZ = mD.getAttribute('maxZ') * 1;
	
	//Set Display variables
	unitScale = units == 'in' ? 96 : 3.7;
	scale = unitScale * zoomScale;
	sliceDimensionX = Math.round((sliceMaxX - sliceMinX) * 1000) /1000; //Rounding to 3 decimal places
	sliceDimensionY = Math.round((sliceMaxY - sliceMinY) * 1000) /1000;
	sliceDimensionZ = Math.round((sliceMaxZ - sliceMinZ) * 1000) /1000;
	
	//Find all groups
	var allGroups = document.getElementsByTagName('g');
	
	//Find only layer groups
	for ( var i = 0;i<allGroups.length;i++){
		if ( allGroups[i].id.indexOf('z') == 0 ){
			layers.push(allGroups[i] );
		}
	}
	
	//Slider
	thumb = document.getElementById('thumb');
	thumb.addEventListener("mousedown", SliderDown, false);
	thumb.addEventListener("mouseup", SliderUp, false);
	thumb.addEventListener("mousemove", SliderMove, false);
	
	//Control box data
	setText('layerMax', layers.length)
	setText('minX', sliceMinX)
	setText('minX', sliceMinX)
	setText('minY', sliceMinY)
	setText('minZ', sliceMinZ)
	setText('maxX', sliceMaxX)
	setText('maxY', sliceMaxY)
	setText('maxZ', sliceMaxZ)
	setText('dimX', sliceDimensionX)
	setText('dimY', sliceDimensionY)
	setText('dimZ', sliceDimensionZ)
	setText('scaleNum','1 : ' + 1/zoomScale);
	setText('layerThickness', 'Layer Thickness: ' + mD.getAttribute('layerThickness') + units);
	
	changeScale(zoomScale);
}

function setSVG(width, height) {
	svgObjs = document.getElementsByTagName('svg');
	rootSVG = svgObjs[0];
	rootSVG.setAttributeNS(null,'width',width + 'px')
	rootSVG.setAttributeNS(null,'height',height + 'px')
}

function setText(id, str ){
	e = document.getElementById(id)
	if ( e != null )
		e.firstChild.nodeValue = str;
}

function SliderDown(event){sliding = true;}

function SliderUp(event){sliding = false;}

function SliderMove(event){
	value = event.clientX - 130
	thumb = document.getElementById("thumb");
	if (sliding && value > 6 && value < 144){
		thumb.setAttribute("cx", 10 + value);
		zoneWidth = (150 - 14) / (layers.length)
		newLayer = Math.round((value - 7 - 0.5 * zoneWidth) / zoneWidth)
		if(newLayer != currentLayer){
			displayLayer(newLayer)
		}
	}
}

function viewAll(){
	//Set svg size and view port
	width = margin + (sliceDimensionX * unitScale) + margin;
	width = Math.max( width, svgMinWidth );
	height = layers.length * (margin + sliceDimensionY * unitScale + textHeight) + 3 * margin + textHeight + noJavascriptControlBoxY
	setSVG(width,height);
	
	//move and show all layers 
	for (var i in layers) {
		x = margin
		//y = margin + sliceDimensionY * scale
		y = (1 * i + 1) * ( margin + sliceDimensionY * unitScale) + i * textHeight
		layers[i].setAttributeNS(null,'transform','translate(' + x + ', ' + y + ')')
		transform = 'scale(' + unitScale + ' ' + (unitScale * -1) + ') translate(' + (sliceMinX * -1) + ' ' + (sliceMinY * -1) + ')'
		pathElements = layers[i].getElementsByTagName('path')
		for (var pathElementIndex = 0; pathElementIndex<pathElements.length; pathElementIndex++){
			pathElements[pathElementIndex].setAttributeNS(null,'transform',transform)
		}
		layers[i].setAttributeNS(null,'visibility','visible')
		layers[i].getElementsByTagName('text')[0].setAttributeNS(null,'visibility','visible')
	}
	
	//show control box
	document.getElementById('javascriptControls').setAttributeNS(null,'visibility','hidden')
	document.getElementById('noJavascriptControls').setAttributeNS(null,'visibility','visible')
	x = margin
	y = layers.length * (margin + sliceDimensionY * unitScale + textHeight) + margin
	document.getElementById('buttonSingle').setAttributeNS(null,'visibility','visible')
	document.getElementById('buttonSingle').setAttributeNS(null,'transform','translate('+x+' '+y+')')
}

function viewSingle(){
	//Set svg size and view port
	width = margin + (sliceDimensionX * scale) + margin;
	width = Math.max( width, svgMinWidth );
	height = margin + (sliceDimensionY * scale) + margin + javascriptControlBoxY + margin 
	setSVG(width,height);
	
	//move and hide all layers 
	for (var i in layers) {
		x = margin
		y = margin + sliceDimensionY * scale
		layers[i].setAttributeNS(null,'transform','translate(' + x + ' ' + y + ')')
		layers[i].setAttributeNS(null,'visibility','hidden')
		layers[i].getElementsByTagName('text')[0].setAttributeNS(null,'visibility','hidden')
		transform = 'scale(' + scale + ' ' + (scale * -1) + ') translate(' + (sliceMinX * -1) + ' ' + (sliceMinY * -1) + ')'
		pathElements = layers[i].getElementsByTagName('path')
		for (var pathElementIndex = 0; pathElementIndex<pathElements.length; pathElementIndex++){
			pathElements[pathElementIndex].setAttributeNS(null,'transform',transform)
		}
	}
	
	//show control box
	document.getElementById('javascriptControls').setAttributeNS(null,'visibility','visible')
	document.getElementById('noJavascriptControls').setAttributeNS(null,'visibility','hidden')
	x = margin
	y = margin + sliceDimensionY * scale + margin
	document.getElementById('javascriptControls').setAttributeNS(null,'transform','translate('+x+' '+y+')')
	document.getElementById('buttonSingle').setAttributeNS(null,'visibility','hidden')
	
	//show current layer
	displayLayer(currentLayer);
}
	]]></script>
	
	<title>Screw Holder.gts SVG Slice File</title>
	<desc></desc>
	<metadata>
		<slice:layers id="sliceData" version="0.1" units="mm" layerThickness="0.4" minX="-30.0" maxX="30.0" minY="-19.677" maxY="20.323" minZ="-3.678" maxZ="11.322"/>
	</metadata>
	<!--Begin Layer Data   -->
	<g id="layerData" fill="darkseagreen" stroke="#00F" stroke-width="0.54px" font-weight="bold" font-family="Arial" font-size="15px">
		<g id="z -3.478" transform="translate(20.0, 168.0)">
			<text y="15" fill="#000" stroke="none">Layer 0, z -3.478</text>
			<path transform="scale(3.7, -3.7) translate(30.0, 19.677)" d="M 22.0 -19.677 L 30.0 -19.677 L 30.0 -2.677 L 24.002 -2.677 L 24.002 -4.499 L 18.011 -4.499 L 18.011 -2.677 L -17.998 -2.677 L -17.998 -4.499 L -23.989 -4.499 L -23.989 -2.677 L -30.0 -2.677 L -30.0 -9.677 L 22.0 -9.677 z M -30.0 10.323 L -30.0 3.323 L -23.989 3.323 L -23.989 5.145 L -17.998 5.145 L -17.998 3.323 L 18.011 3.323 L 18.011 5.145 L 24.002 5.145 L 24.002 3.323 L 30.0 3.323 L 30.0 20.323 L 22.0 20.323 L 22.0 10.323 z M 10.883 -6.847 L 10.75 -6.177 L 10.883 -5.507 L 11.263 -4.94 L 11.83 -4.56 L 12.5 -4.427 L 13.17 -4.56 L 13.737 -4.94 L 14.117 -5.507 L 14.25 -6.177 L 14.117 -6.847 L 13.737 -7.414 L 13.17 -7.794 L 12.5 -7.927 L 11.83 -7.794 L 11.263 -7.414 z M -14.17 -7.794 L -14.737 -7.414 L -15.117 -6.847 L -15.25 -6.177 L -15.117 -5.507 L -14.737 -4.94 L -14.17 -4.56 L -13.5 -4.427 L -12.83 -4.56 L -12.263 -4.94 L -11.883 -5.507 L -11.75 -6.177 L -11.883 -6.847 L -12.263 -7.414 L -12.83 -7.794 L -13.5 -7.927 z M 14.117 6.153 L 13.737 5.586 L 13.17 5.206 L 12.5 5.073 L 11.83 5.206 L 11.263 5.586 L 10.883 6.153 L 10.75 6.823 L 10.883 7.493 L 11.263 8.06 L 11.83 8.44 L 12.5 8.573 L 13.17 8.44 L 13.737 8.06 L 14.117 7.493 L 14.25 6.823 z M -14.737 8.06 L -14.17 8.44 L -13.5 8.573 L -12.83 8.44 L -12.263 8.06 L -11.883 7.493 L -11.75 6.823 L -11.883 6.153 L -12.263 5.586 L -12.83 5.206 L -13.5 5.073 L -14.17 5.206 L -14.737 5.586 L -15.117 6.153 L -15.25 6.823 L -15.117 7.493 z"/>
		</g>
		<g id="z -3.078" transform="translate(20.0, 358.5)">
			<text y="15" fill="#000" stroke="none">Layer 1, z -3.078</text>
			<path transform="scale(3.7, -3.7) translate(30.0, 19.677)" d="M 22.0 -19.677 L 30.0 -19.677 L 30.0 -2.677 L 24.002 -2.677 L 24.002 -4.579 L 18.011 -4.579 L 18.011 -2.677 L -17.998 -2.677 L -17.998 -4.579 L -23.989 -4.579 L -23.989 -2.677 L -30.0 -2.677 L -30.0 -9.677 L 22.0 -9.677 z M -30.0 10.323 L -30.0 3.323 L -23.989 3.323 L -23.989 5.225 L -17.998 5.225 L -17.998 3.323 L 18.011 3.323 L 18.011 5.225 L 24.002 5.225 L 24.002 3.323 L 30.0 3.323 L 30.0 20.323 L 22.0 20.323 L 22.0 10.323 z M 10.883 -6.847 L 10.75 -6.177 L 10.883 -5.507 L 11.263 -4.94 L 11.83 -4.56 L 12.5 -4.427 L 13.17 -4.56 L 13.737 -4.94 L 14.117 -5.507 L 14.25 -6.177 L 14.117 -6.847 L 13.737 -7.414 L 13.17 -7.794 L 12.5 -7.927 L 11.83 -7.794 L 11.263 -7.414 z M -14.17 -7.794 L -14.737 -7.414 L -15.117 -6.847 L -15.25 -6.177 L -15.117 -5.507 L -14.737 -4.94 L -14.17 -4.56 L -13.5 -4.427 L -12.83 -4.56 L -12.263 -4.94 L -11.883 -5.507 L -11.75 -6.177 L -11.883 -6.847 L -12.263 -7.414 L -12.83 -7.794 L -13.5 -7.927 z M 14.117 6.153 L 13.737 5.586 L 13.17 5.206 L 12.5 5.073 L 11.83 5.206 L 11.263 5.586 L 10.883 6.153 L 10.75 6.823 L 10.883 7.493 L 11.263 8.06 L 11.83 8.44 L 12.5 8.573 L 13.17 8.44 L 13.737 8.06 L 14.117 7.493 L 14.25 6.823 z M -14.737 8.06 L -14.17 8.44 L -13.5 8.573 L -12.83 8.44 L -12.263 8.06 L -11.883 7.493 L -11.75 6.823 L -11.883 6.153 L -12.263 5.586 L -12.83 5.206 L -13.5 5.073 L -14.17 5.206 L -14.737 5.586 L -15.117 6.153 L -15.25 6.823 L -15.117 7.493 z"/>
		</g>
		<g id="z -2.678" transform="translate(20.0, 549.0)">
			<text y="15" fill="#000" stroke="none">Layer 2, z -2.678</text>
			<path transform="scale(3.7, -3.7) translate(30.0, 19.677)" d="M 22.0 -19.677 L 30.0 -19.677 L 30.0 -2.677 L 24.002 -2.677 L 24.002 -4.658 L 18.011 -4.658 L 18.011 -2.677 L -17.998 -2.677 L -17.998 -4.658 L -23.989 -4.658 L -23.989 -2.677 L -30.0 -2.677 L -30.0 -9.677 L 22.0 -9.677 z M -30.0 10.323 L -30.0 3.323 L -23.989 3.323 L -23.989 5.304 L -17.998 5.304 L -17.998 3.323 L 18.011 3.323 L 18.011 5.304 L 24.002 5.304 L 24.002 3.323 L 30.0 3.323 L 30.0 20.323 L 22.0 20.323 L 22.0 10.323 z M 10.883 -6.847 L 10.75 -6.177 L 10.883 -5.507 L 11.263 -4.94 L 11.83 -4.56 L 12.5 -4.427 L 13.17 -4.56 L 13.737 -4.94 L 14.117 -5.507 L 14.25 -6.177 L 14.117 -6.847 L 13.737 -7.414 L 13.17 -7.794 L 12.5 -7.927 L 11.83 -7.794 L 11.263 -7.414 z M -14.17 -7.794 L -14.737 -7.414 L -15.117 -6.847 L -15.25 -6.177 L -15.117 -5.507 L -14.737 -4.94 L -14.17 -4.56 L -13.5 -4.427 L -12.83 -4.56 L -12.263 -4.94 L -11.883 -5.507 L -11.75 -6.177 L -11.883 -6.847 L -12.263 -7.414 L -12.83 -7.794 L -13.5 -7.927 z M 14.117 6.153 L 13.737 5.586 L 13.17 5.206 L 12.5 5.073 L 11.83 5.206 L 11.263 5.586 L 10.883 6.153 L 10.75 6.823 L 10.883 7.493 L 11.263 8.06 L 11.83 8.44 L 12.5 8.573 L 13.17 8.44 L 13.737 8.06 L 14.117 7.493 L 14.25 6.823 z M -14.737 8.06 L -14.17 8.44 L -13.5 8.573 L -12.83 8.44 L -12.263 8.06 L -11.883 7.493 L -11.75 6.823 L -11.883 6.153 L -12.263 5.586 L -12.83 5.206 L -13.5 5.073 L -14.17 5.206 L -14.737 5.586 L -15.117 6.153 L -15.25 6.823 L -15.117 7.493 z"/>
		</g>
		<g id="z -2.278" transform="translate(20.0, 739.5)">
			<text y="15" fill="#000" stroke="none">Layer 3, z -2.278</text>
			<path transform="scale(3.7, -3.7) translate(30.0, 19.677)" d="M 22.0 -19.677 L 30.0 -19.677 L 30.0 -2.677 L 24.002 -2.677 L 24.002 -4.738 L 18.011 -4.738 L 18.011 -2.677 L -17.998 -2.677 L -17.998 -4.738 L -23.989 -4.738 L -23.989 -2.677 L -30.0 -2.677 L -30.0 -9.677 L 22.0 -9.677 z M -30.0 10.323 L -30.0 3.323 L -23.989 3.323 L -23.989 5.384 L -17.998 5.384 L -17.998 3.323 L 18.011 3.323 L 18.011 5.384 L 24.002 5.384 L 24.002 3.323 L 30.0 3.323 L 30.0 20.323 L 22.0 20.323 L 22.0 10.323 z M 10.883 -6.847 L 10.75 -6.177 L 10.883 -5.507 L 11.263 -4.94 L 11.83 -4.56 L 12.5 -4.427 L 13.17 -4.56 L 13.737 -4.94 L 14.117 -5.507 L 14.25 -6.177 L 14.117 -6.847 L 13.737 -7.414 L 13.17 -7.794 L 12.5 -7.927 L 11.83 -7.794 L 11.263 -7.414 z M -14.17 -7.794 L -14.737 -7.414 L -15.117 -6.847 L -15.25 -6.177 L -15.117 -5.507 L -14.737 -4.94 L -14.17 -4.56 L -13.5 -4.427 L -12.83 -4.56 L -12.263 -4.94 L -11.883 -5.507 L -11.75 -6.177 L -11.883 -6.847 L -12.263 -7.414 L -12.83 -7.794 L -13.5 -7.927 z M 14.117 6.153 L 13.737 5.586 L 13.17 5.206 L 12.5 5.073 L 11.83 5.206 L 11.263 5.586 L 10.883 6.153 L 10.75 6.823 L 10.883 7.493 L 11.263 8.06 L 11.83 8.44 L 12.5 8.573 L 13.17 8.44 L 13.737 8.06 L 14.117 7.493 L 14.25 6.823 z M -14.737 8.06 L -14.17 8.44 L -13.5 8.573 L -12.83 8.44 L -12.263 8.06 L -11.883 7.493 L -11.75 6.823 L -11.883 6.153 L -12.263 5.586 L -12.83 5.206 L -13.5 5.073 L -14.17 5.206 L -14.737 5.586 L -15.117 6.153 L -15.25 6.823 L -15.117 7.493 z"/>
		</g>
		<g id="z -1.878" transform="translate(20.0, 930.0)">
			<text y="15" fill="#000" stroke="none">Layer 4, z -1.878</text>
			<path transform="scale(3.7, -3.7) translate(30.0, 19.677)" d="M -30.0 10.323 L -30.0 3.323 L -23.989 3.323 L -23.989 5.463 L -17.998 5.463 L -17.998 3.323 L 18.011 3.323 L 18.011 5.463 L 24.002 5.463 L 24.002 3.323 L 30.0 3.323 L 30.0 16.572 L 22.0 16.572 L 22.0 10.323 z M 30.0 -2.677 L 24.002 -2.677 L 24.002 -4.817 L 18.011 -4.817 L 18.011 -2.677 L -17.998 -2.677 L -17.998 -4.817 L -23.989 -4.817 L -23.989 -2.677 L -30.0 -2.677 L -30.0 -9.677 L 22.0 -9.677 L 22.0 -15.926 L 30.0 -15.926 z M 30.0 20.323 L 22.0 20.323 L 22.0 17.074 L 30.0 17.074 L 30.0 17.618 z M 22.0 -19.677 L 30.0 -19.677 L 30.0 -16.428 L 22.0 -16.428 z M 10.883 -6.847 L 10.75 -6.177 L 10.883 -5.507 L 11.263 -4.94 L 11.83 -4.56 L 12.5 -4.427 L 13.17 -4.56 L 13.737 -4.94 L 14.117 -5.507 L 14.25 -6.177 L 14.117 -6.847 L 13.737 -7.414 L 13.17 -7.794 L 12.5 -7.927 L 11.83 -7.794 L 11.263 -7.414 z M -14.17 -7.794 L -14.737 -7.414 L -15.117 -6.847 L -15.25 -6.177 L -15.117 -5.507 L -14.737 -4.94 L -14.17 -4.56 L -13.5 -4.427 L -12.83 -4.56 L -12.263 -4.94 L -11.883 -5.507 L -11.75 -6.177 L -11.883 -6.847 L -12.263 -7.414 L -12.83 -7.794 L -13.5 -7.927 z M 14.117 6.153 L 13.737 5.586 L 13.17 5.206 L 12.5 5.073 L 11.83 5.206 L 11.263 5.586 L 10.883 6.153 L 10.75 6.823 L 10.883 7.493 L 11.263 8.06 L 11.83 8.44 L 12.5 8.573 L 13.17 8.44 L 13.737 8.06 L 14.117 7.493 L 14.25 6.823 z M -14.737 8.06 L -14.17 8.44 L -13.5 8.573 L -12.83 8.44 L -12.263 8.06 L -11.883 7.493 L -11.75 6.823 L -11.883 6.153 L -12.263 5.586 L -12.83 5.206 L -13.5 5.073 L -14.17 5.206 L -14.737 5.586 L -15.117 6.153 L -15.25 6.823 L -15.117 7.493 z"/>
		</g>
		<g id="z -1.478" transform="translate(20.0, 1120.5)">
			<text y="15" fill="#000" stroke="none">Layer 5, z -1.478</text>
			<path transform="scale(3.7, -3.7) translate(30.0, 19.677)" d="M -17.998 -4.857 L -23.989 -4.857 L -23.989 -2.677 L -30.0 -2.677 L -30.0 -9.677 L 22.0 -9.677 L 22.0 -15.033 L 30.0 -15.033 L 30.0 -2.677 L 24.002 -2.677 L 24.002 -4.857 L 18.011 -4.857 L 18.011 -2.677 L -17.998 -2.677 z M -30.0 10.323 L -30.0 3.323 L -23.989 3.323 L -23.989 5.503 L -17.998 5.503 L -17.998 3.323 L 18.011 3.323 L 18.011 5.503 L 24.002 5.503 L 24.002 3.323 L 30.0 3.323 L 30.0 15.679 L 22.0 15.679 L 22.0 10.323 z M 30.0 20.323 L 22.0 20.323 L 22.0 17.967 L 30.0 17.967 z M 22.0 -19.677 L 30.0 -19.677 L 30.0 -17.321 L 22.0 -17.321 z M 10.883 -6.847 L 10.75 -6.177 L 10.883 -5.507 L 11.263 -4.94 L 11.83 -4.56 L 12.5 -4.427 L 13.17 -4.56 L 13.737 -4.94 L 14.117 -5.507 L 14.25 -6.177 L 14.117 -6.847 L 13.737 -7.414 L 13.17 -7.794 L 12.5 -7.927 L 11.83 -7.794 L 11.263 -7.414 z M -14.17 -7.794 L -14.737 -7.414 L -15.117 -6.847 L -15.25 -6.177 L -15.117 -5.507 L -14.737 -4.94 L -14.17 -4.56 L -13.5 -4.427 L -12.83 -4.56 L -12.263 -4.94 L -11.883 -5.507 L -11.75 -6.177 L -11.883 -6.847 L -12.263 -7.414 L -12.83 -7.794 L -13.5 -7.927 z M -14.737 8.06 L -14.17 8.44 L -13.5 8.573 L -12.83 8.44 L -12.263 8.06 L -11.883 7.493 L -11.75 6.823 L -11.883 6.153 L -12.263 5.586 L -12.83 5.206 L -13.5 5.073 L -14.17 5.206 L -14.737 5.586 L -15.117 6.153 L -15.25 6.823 L -15.117 7.493 z M 14.117 6.153 L 13.737 5.586 L 13.17 5.206 L 12.5 5.073 L 11.83 5.206 L 11.263 5.586 L 10.883 6.153 L 10.75 6.823 L 10.883 7.493 L 11.263 8.06 L 11.83 8.44 L 12.5 8.573 L 13.17 8.44 L 13.737 8.06 L 14.117 7.493 L 14.25 6.823 z"/>
		</g>
		<g id="z -1.078" transform="translate(20.0, 1311.0)">
			<text y="15" fill="#000" stroke="none">Layer 6, z -1.078</text>
			<path transform="scale(3.7, -3.7) translate(30.0, 19.677)" d="M -17.998 -4.778 L -23.989 -4.778 L -23.989 -2.677 L -30.0 -2.677 L -30.0 -9.677 L 22.0 -9.677 L 22.0 -14.714 L 30.0 -14.714 L 30.0 -2.677 L 24.002 -2.677 L 24.002 -4.778 L 18.011 -4.778 L 18.011 -2.677 L -17.998 -2.677 z M -30.0 10.323 L -30.0 3.323 L -23.989 3.323 L -23.989 5.424 L -17.998 5.424 L -17.998 3.323 L 18.011 3.323 L 18.011 5.424 L 24.002 5.424 L 24.002 3.323 L 30.0 3.323 L 30.0 15.36 L 22.0 15.36 L 22.0 10.323 z M 22.0 18.286 L 30.0 18.286 L 30.0 20.323 L 22.0 20.323 z M 22.0 -19.677 L 30.0 -19.677 L 30.0 -17.64 L 22.0 -17.64 z M -14.17 -7.794 L -14.737 -7.414 L -15.117 -6.847 L -15.25 -6.177 L -15.117 -5.507 L -14.737 -4.94 L -14.17 -4.56 L -13.5 -4.427 L -12.83 -4.56 L -12.263 -4.94 L -11.883 -5.507 L -11.75 -6.177 L -11.883 -6.847 L -12.263 -7.414 L -12.83 -7.794 L -13.5 -7.927 z M 10.883 -6.847 L 10.75 -6.177 L 10.883 -5.507 L 11.263 -4.94 L 11.83 -4.56 L 12.5 -4.427 L 13.17 -4.56 L 13.737 -4.94 L 14.117 -5.507 L 14.25 -6.177 L 14.117 -6.847 L 13.737 -7.414 L 13.17 -7.794 L 12.5 -7.927 L 11.83 -7.794 L 11.263 -7.414 z M -14.737 8.06 L -14.17 8.44 L -13.5 8.573 L -12.83 8.44 L -12.263 8.06 L -11.883 7.493 L -11.75 6.823 L -11.883 6.153 L -12.263 5.586 L -12.83 5.206 L -13.5 5.073 L -14.17 5.206 L -14.737 5.586 L -15.117 6.153 L -15.25 6.823 L -15.117 7.493 z M 14.117 6.153 L 13.737 5.586 L 13.17 5.206 L 12.5 5.073 L 11.83 5.206 L 11.263 5.586 L 10.883 6.153 L 10.75 6.823 L 10.883 7.493 L 11.263 8.06 L 11.83 8.44 L 12.5 8.573 L 13.17 8.44 L 13.737 8.06 L 14.117 7.493 L 14.25 6.823 z"/>
		</g>
		<g id="z -0.678" transform="translate(20.0, 1501.5)">
			<text y="15" fill="#000" stroke="none">Layer 7, z -0.678</text>
			<path transform="scale(3.7, -3.7) translate(30.0, 19.677)" d="M -17.998 -4.698 L -23.989 -4.698 L -23.989 -2.677 L -30.0 -2.677 L -30.0 -9.677 L 22.0 -9.677 L 22.0 -14.526 L 30.0 -14.526 L 30.0 -2.677 L 24.002 -2.677 L 24.002 -4.698 L 18.011 -4.698 L 18.011 -2.677 L -17.998 -2.677 z M -30.0 10.323 L -30.0 3.323 L -23.989 3.323 L -23.989 5.344 L -17.998 5.344 L -17.998 3.323 L 18.011 3.323 L 18.011 5.344 L 24.002 5.344 L 24.002 3.323 L 30.0 3.323 L 30.0 15.172 L 22.0 15.172 L 22.0 10.323 z M 22.0 -19.677 L 30.0 -19.677 L 30.0 -17.828 L 22.0 -17.828 z M 22.0 18.474 L 30.0 18.474 L 30.0 20.323 L 22.0 20.323 z M -14.17 -7.794 L -14.737 -7.414 L -15.117 -6.847 L -15.25 -6.177 L -15.117 -5.507 L -14.737 -4.94 L -14.17 -4.56 L -13.5 -4.427 L -12.83 -4.56 L -12.263 -4.94 L -11.883 -5.507 L -11.75 -6.177 L -11.883 -6.847 L -12.263 -7.414 L -12.83 -7.794 L -13.5 -7.927 z M 10.883 -6.847 L 10.75 -6.177 L 10.883 -5.507 L 11.263 -4.94 L 11.83 -4.56 L 12.5 -4.427 L 13.17 -4.56 L 13.737 -4.94 L 14.117 -5.507 L 14.25 -6.177 L 14.117 -6.847 L 13.737 -7.414 L 13.17 -7.794 L 12.5 -7.927 L 11.83 -7.794 L 11.263 -7.414 z M -14.737 8.06 L -14.17 8.44 L -13.5 8.573 L -12.83 8.44 L -12.263 8.06 L -11.883 7.493 L -11.75 6.823 L -11.883 6.153 L -12.263 5.586 L -12.83 5.206 L -13.5 5.073 L -14.17 5.206 L -14.737 5.586 L -15.117 6.153 L -15.25 6.823 L -15.117 7.493 z M 14.117 6.153 L 13.737 5.586 L 13.17 5.206 L 12.5 5.073 L 11.83 5.206 L 11.263 5.586 L 10.883 6.153 L 10.75 6.823 L 10.883 7.493 L 11.263 8.06 L 11.83 8.44 L 12.5 8.573 L 13.17 8.44 L 13.737 8.06 L 14.117 7.493 L 14.25 6.823 z"/>
		</g>
		<g id="z -0.278" transform="translate(20.0, 1692.0)">
			<text y="15" fill="#000" stroke="none">Layer 8, z -0.278</text>
			<path transform="scale(3.7, -3.7) translate(30.0, 19.677)" d="M -30.0 10.323 L -30.0 3.323 L -23.989 3.323 L -23.989 5.264 L -17.998 5.264 L -17.998 3.323 L 18.011 3.323 L 18.011 5.264 L 24.002 5.264 L 24.002 3.323 L 30.0 3.323 L 30.0 15.093 L 22.0 15.093 L 22.0 10.323 z M -17.998 -4.618 L -23.989 -4.618 L -23.989 -2.677 L -30.0 -2.677 L -30.0 -9.677 L 22.0 -9.677 L 22.0 -14.447 L 30.0 -14.447 L 30.0 -2.677 L 24.002 -2.677 L 24.002 -4.618 L 18.011 -4.618 L 18.011 -2.677 L -17.998 -2.677 z M 22.0 18.553 L 30.0 18.553 L 30.0 20.323 L 22.0 20.323 z M 22.0 -19.677 L 30.0 -19.677 L 30.0 -17.907 L 22.0 -17.907 z M -14.17 -7.794 L -14.737 -7.414 L -15.117 -6.847 L -15.25 -6.177 L -15.117 -5.507 L -14.737 -4.94 L -14.17 -4.56 L -13.5 -4.427 L -12.83 -4.56 L -12.263 -4.94 L -11.883 -5.507 L -11.75 -6.177 L -11.883 -6.847 L -12.263 -7.414 L -12.83 -7.794 L -13.5 -7.927 z M 10.883 -6.847 L 10.75 -6.177 L 10.883 -5.507 L 11.263 -4.94 L 11.83 -4.56 L 12.5 -4.427 L 13.17 -4.56 L 13.737 -4.94 L 14.117 -5.507 L 14.25 -6.177 L 14.117 -6.847 L 13.737 -7.414 L 13.17 -7.794 L 12.5 -7.927 L 11.83 -7.794 L 11.263 -7.414 z M -14.737 8.06 L -14.17 8.44 L -13.5 8.573 L -12.83 8.44 L -12.263 8.06 L -11.883 7.493 L -11.75 6.823 L -11.883 6.153 L -12.263 5.586 L -12.83 5.206 L -13.5 5.073 L -14.17 5.206 L -14.737 5.586 L -15.117 6.153 L -15.25 6.823 L -15.117 7.493 z M 14.117 6.153 L 13.737 5.586 L 13.17 5.206 L 12.5 5.073 L 11.83 5.206 L 11.263 5.586 L 10.883 6.153 L 10.75 6.823 L 10.883 7.493 L 11.263 8.06 L 11.83 8.44 L 12.5 8.573 L 13.17 8.44 L 13.737 8.06 L 14.117 7.493 L 14.25 6.823 z"/>
		</g>
		<g id="z 0.122" transform="translate(20.0, 1882.5)">
			<text y="15" fill="#000" stroke="none">Layer 9, z 0.122</text>
			<path transform="scale(3.7, -3.7) translate(30.0, 19.677)" d="M -17.998 -4.539 L -23.989 -4.539 L -23.989 -2.677 L -30.0 -2.677 L -30.0 -9.677 L 22.0 -9.677 L 22.0 -14.487 L 30.0 -14.487 L 30.0 -2.677 L 24.002 -2.677 L 24.002 -4.539 L 18.011 -4.539 L 18.011 -2.677 L -17.998 -2.677 z M -30.0 10.323 L -30.0 3.323 L -23.989 3.323 L -23.989 5.185 L -17.998 5.185 L -17.998 3.323 L 18.011 3.323 L 18.011 5.185 L 24.002 5.185 L 24.002 3.323 L 30.0 3.323 L 30.0 15.133 L 22.0 15.133 L 22.0 10.323 z M 30.0 19.662 L 30.0 20.323 L 22.0 20.323 L 22.0 18.513 L 30.0 18.513 z M 22.0 -19.677 L 30.0 -19.677 L 30.0 -17.867 L 22.0 -17.867 z M -14.17 -7.794 L -14.737 -7.414 L -15.117 -6.847 L -15.25 -6.177 L -15.117 -5.507 L -14.737 -4.94 L -14.17 -4.56 L -13.5 -4.427 L -12.83 -4.56 L -12.263 -4.94 L -11.883 -5.507 L -11.75 -6.177 L -11.883 -6.847 L -12.263 -7.414 L -12.83 -7.794 L -13.5 -7.927 z M 10.883 -6.847 L 10.75 -6.177 L 10.883 -5.507 L 11.263 -4.94 L 11.83 -4.56 L 12.5 -4.427 L 13.17 -4.56 L 13.737 -4.94 L 14.117 -5.507 L 14.25 -6.177 L 14.117 -6.847 L 13.737 -7.414 L 13.17 -7.794 L 12.5 -7.927 L 11.83 -7.794 L 11.263 -7.414 z M 14.117 6.153 L 13.737 5.586 L 13.17 5.206 L 12.5 5.073 L 11.83 5.206 L 11.263 5.586 L 10.883 6.153 L 10.75 6.823 L 10.883 7.493 L 11.263 8.06 L 11.83 8.44 L 12.5 8.573 L 13.17 8.44 L 13.737 8.06 L 14.117 7.493 L 14.25 6.823 z M -14.737 8.06 L -14.17 8.44 L -13.5 8.573 L -12.83 8.44 L -12.263 8.06 L -11.883 7.493 L -11.75 6.823 L -11.883 6.153 L -12.263 5.586 L -12.83 5.206 L -13.5 5.073 L -14.17 5.206 L -14.737 5.586 L -15.117 6.153 L -15.25 6.823 L -15.117 7.493 z"/>
		</g>
		<g id="z 0.522" transform="translate(20.0, 2073.0)">
			<text y="15" fill="#000" stroke="none">Layer 10, z 0.522</text>
			<path transform="scale(3.7, -3.7) translate(30.0, 19.677)" d="M 24.002 -2.677 L 24.002 -4.408 L 18.011 -4.408 L 18.011 -2.677 L -17.998 -2.677 L -17.998 -4.408 L -23.989 -4.408 L -23.989 -2.677 L -30.0 -2.677 L -30.0 -9.677 L 22.0 -9.677 L 22.0 -14.58 L 30.0 -14.58 L 30.0 -2.677 z M -30.0 10.323 L -30.0 3.323 L -23.989 3.323 L -23.989 5.054 L -17.998 5.054 L -17.998 3.323 L 18.011 3.323 L 18.011 5.054 L 24.002 5.054 L 24.002 3.323 L 30.0 3.323 L 30.0 15.226 L 22.0 15.226 L 22.0 10.323 z M 30.0 20.323 L 22.0 20.323 L 22.0 18.42 L 30.0 18.42 z M 22.0 -19.677 L 30.0 -19.677 L 30.0 -17.774 L 22.0 -17.774 L 22.0 -17.799 z M -14.17 -7.794 L -14.737 -7.414 L -15.117 -6.847 L -15.25 -6.177 L -15.117 -5.507 L -14.737 -4.94 L -14.17 -4.56 L -13.5 -4.427 L -12.83 -4.56 L -12.263 -4.94 L -11.883 -5.507 L -11.75 -6.177 L -11.883 -6.847 L -12.263 -7.414 L -12.83 -7.794 L -13.5 -7.927 z M 10.883 -6.847 L 10.75 -6.177 L 10.883 -5.507 L 11.263 -4.94 L 11.83 -4.56 L 12.5 -4.427 L 13.17 -4.56 L 13.737 -4.94 L 14.117 -5.507 L 14.25 -6.177 L 14.117 -6.847 L 13.737 -7.414 L 13.17 -7.794 L 12.5 -7.927 L 11.83 -7.794 L 11.263 -7.414 z M 13.737 8.06 L 14.117 7.493 L 14.25 6.823 L 14.117 6.153 L 13.737 5.586 L 13.17 5.206 L 12.5 5.073 L 11.83 5.206 L 11.263 5.586 L 10.883 6.153 L 10.75 6.823 L 10.883 7.493 L 11.263 8.06 L 11.83 8.44 L 12.5 8.573 L 13.17 8.44 z M -14.737 8.06 L -14.17 8.44 L -13.5 8.573 L -12.83 8.44 L -12.263 8.06 L -11.883 7.493 L -11.75 6.823 L -11.883 6.153 L -12.263 5.586 L -12.83 5.206 L -13.5 5.073 L -14.17 5.206 L -14.737 5.586 L -15.117 6.153 L -15.25 6.823 L -15.117 7.493 z"/>
		</g>
		<g id="z 0.922" transform="translate(20.0, 2263.5)">
			<text y="15" fill="#000" stroke="none">Layer 11, z 0.922</text>
			<path transform="scale(3.7, -3.7) translate(30.0, 19.677)" d="M 24.002 -2.677 L 24.002 -4.14 L 18.011 -4.14 L 18.011 -2.677 L -17.998 -2.677 L -17.998 -4.14 L -23.989 -4.14 L -23.989 -2.677 L -30.0 -2.677 L -30.0 -9.677 L 22.0 -9.677 L 22.0 -14.848 L 30.0 -14.848 L 30.0 -2.677 z M -30.0 10.323 L -30.0 3.323 L -23.989 3.323 L -23.989 4.786 L -17.998 4.786 L -17.998 3.323 L 18.011 3.323 L 18.011 4.786 L 24.002 4.786 L 24.002 3.323 L 30.0 3.323 L 30.0 15.494 L 22.0 15.494 L 22.0 10.323 z M 22.0 -19.677 L 30.0 -19.677 L 30.0 -17.506 L 22.0 -17.506 L 22.0 -17.869 z M 30.0 20.323 L 22.0 20.323 L 22.0 18.152 L 30.0 18.152 z M -14.17 -7.794 L -14.737 -7.414 L -15.117 -6.847 L -15.25 -6.177 L -15.117 -5.507 L -14.737 -4.94 L -14.17 -4.56 L -13.5 -4.427 L -12.83 -4.56 L -12.263 -4.94 L -11.883 -5.507 L -11.75 -6.177 L -11.883 -6.847 L -12.263 -7.414 L -12.83 -7.794 L -13.5 -7.927 z M 10.883 -6.847 L 10.75 -6.177 L 10.883 -5.507 L 11.263 -4.94 L 11.83 -4.56 L 12.5 -4.427 L 13.17 -4.56 L 13.737 -4.94 L 14.117 -5.507 L 14.25 -6.177 L 14.117 -6.847 L 13.737 -7.414 L 13.17 -7.794 L 12.5 -7.927 L 11.83 -7.794 L 11.263 -7.414 z M 13.737 8.06 L 14.117 7.493 L 14.25 6.823 L 14.117 6.153 L 13.737 5.586 L 13.17 5.206 L 12.5 5.073 L 11.83 5.206 L 11.263 5.586 L 10.883 6.153 L 10.75 6.823 L 10.883 7.493 L 11.263 8.06 L 11.83 8.44 L 12.5 8.573 L 13.17 8.44 z M -14.737 8.06 L -14.17 8.44 L -13.5 8.573 L -12.83 8.44 L -12.263 8.06 L -11.883 7.493 L -11.75 6.823 L -11.883 6.153 L -12.263 5.586 L -12.83 5.206 L -13.5 5.073 L -14.17 5.206 L -14.737 5.586 L -15.117 6.153 L -15.25 6.823 L -15.117 7.493 z"/>
		</g>
		<g id="z 1.322" transform="translate(20.0, 2454.0)">
			<text y="15" fill="#000" stroke="none">Layer 12, z 1.322</text>
			<path transform="scale(3.7, -3.7) translate(30.0, 19.677)" d="M 24.002 -2.677 L 24.002 -3.873 L 18.011 -3.873 L 18.011 -2.677 L -17.998 -2.677 L -17.998 -3.873 L -23.989 -3.873 L -23.989 -2.677 L -30.0 -2.677 L -30.0 -9.677 L 22.0 -9.677 L 22.0 -15.333 L 30.0 -15.333 L 30.0 -2.677 z M -30.0 10.323 L -30.0 3.323 L -23.989 3.323 L -23.989 4.519 L -17.998 4.519 L -17.998 3.323 L 18.011 3.323 L 18.011 4.519 L 24.002 4.519 L 24.002 3.323 L 30.0 3.323 L 30.0 15.979 L 22.0 15.979 L 22.0 10.323 z M 22.0 -19.677 L 30.0 -19.677 L 30.0 -17.021 L 22.0 -17.021 L 22.0 -17.385 z M 30.0 20.323 L 22.0 20.323 L 22.0 17.667 L 30.0 17.667 z M -14.17 -7.794 L -14.737 -7.414 L -15.117 -6.847 L -15.25 -6.177 L -15.117 -5.507 L -14.737 -4.94 L -14.17 -4.56 L -13.5 -4.427 L -12.83 -4.56 L -12.263 -4.94 L -11.883 -5.507 L -11.75 -6.177 L -11.883 -6.847 L -12.263 -7.414 L -12.83 -7.794 L -13.5 -7.927 z M 10.883 -6.847 L 10.75 -6.177 L 10.883 -5.507 L 11.263 -4.94 L 11.83 -4.56 L 12.5 -4.427 L 13.17 -4.56 L 13.737 -4.94 L 14.117 -5.507 L 14.25 -6.177 L 14.117 -6.847 L 13.737 -7.414 L 13.17 -7.794 L 12.5 -7.927 L 11.83 -7.794 L 11.263 -7.414 z M 13.737 8.06 L 14.117 7.493 L 14.25 6.823 L 14.117 6.153 L 13.737 5.586 L 13.17 5.206 L 12.5 5.073 L 11.83 5.206 L 11.263 5.586 L 10.883 6.153 L 10.75 6.823 L 10.883 7.493 L 11.263 8.06 L 11.83 8.44 L 12.5 8.573 L 13.17 8.44 z M -14.737 8.06 L -14.17 8.44 L -13.5 8.573 L -12.83 8.44 L -12.263 8.06 L -11.883 7.493 L -11.75 6.823 L -11.883 6.153 L -12.263 5.586 L -12.83 5.206 L -13.5 5.073 L -14.17 5.206 L -14.737 5.586 L -15.117 6.153 L -15.25 6.823 L -15.117 7.493 z"/>
		</g>
		<g id="z 1.722" transform="translate(20.0, 2644.5)">
			<text y="15" fill="#000" stroke="none">Layer 13, z 1.722</text>
			<!--bridgeRotation--> 1j
			<path transform="scale(3.7, -3.7) translate(30.0, 19.677)" d="M 22.0 -19.677 L 30.0 -19.677 L 30.0 -2.677 L 24.002 -2.677 L 24.002 -3.606 L 18.011 -3.606 L 18.011 -2.677 L -17.998 -2.677 L -17.998 -3.606 L -23.989 -3.606 L -23.989 -2.677 L -30.0 -2.677 L -30.0 -9.677 L 22.0 -9.677 z M -30.0 10.323 L -30.0 3.323 L -23.989 3.323 L -23.989 4.252 L -17.998 4.252 L -17.998 3.323 L 18.011 3.323 L 18.011 4.252 L 24.002 4.252 L 24.002 3.323 L 30.0 3.323 L 30.0 20.323 L 22.0 20.323 L 22.0 10.323 z M -14.17 -7.794 L -14.737 -7.414 L -15.117 -6.847 L -15.25 -6.177 L -15.117 -5.507 L -14.737 -4.94 L -14.17 -4.56 L -13.5 -4.427 L -12.83 -4.56 L -12.263 -4.94 L -11.883 -5.507 L -11.75 -6.177 L -11.883 -6.847 L -12.263 -7.414 L -12.83 -7.794 L -13.5 -7.927 z M 10.883 -6.847 L 10.75 -6.177 L 10.883 -5.507 L 11.263 -4.94 L 11.83 -4.56 L 12.5 -4.427 L 13.17 -4.56 L 13.737 -4.94 L 14.117 -5.507 L 14.25 -6.177 L 14.117 -6.847 L 13.737 -7.414 L 13.17 -7.794 L 12.5 -7.927 L 11.83 -7.794 L 11.263 -7.414 z M 13.737 8.06 L 14.117 7.493 L 14.25 6.823 L 14.117 6.153 L 13.737 5.586 L 13.17 5.206 L 12.5 5.073 L 11.83 5.206 L 11.263 5.586 L 10.883 6.153 L 10.75 6.823 L 10.883 7.493 L 11.263 8.06 L 11.83 8.44 L 12.5 8.573 L 13.17 8.44 z M -14.737 8.06 L -14.17 8.44 L -13.5 8.573 L -12.83 8.44 L -12.263 8.06 L -11.883 7.493 L -11.75 6.823 L -11.883 6.153 L -12.263 5.586 L -12.83 5.206 L -13.5 5.073 L -14.17 5.206 L -14.737 5.586 L -15.117 6.153 L -15.25 6.823 L -15.117 7.493 z"/>
		</g>
		<g id="z 2.122" transform="translate(20.0, 2835.0)">
			<text y="15" fill="#000" stroke="none">Layer 14, z 2.122</text>
			<path transform="scale(3.7, -3.7) translate(30.0, 19.677)" d="M 22.0 -19.677 L 30.0 -19.677 L 30.0 -2.677 L 24.002 -2.677 L 24.002 -3.319 L 18.011 -3.319 L 18.011 -2.677 L -17.998 -2.677 L -17.998 -3.319 L -23.989 -3.319 L -23.989 -2.677 L -30.0 -2.677 L -30.0 -9.677 L 22.0 -9.677 z M -30.0 10.323 L -30.0 3.323 L -23.989 3.323 L -23.989 3.965 L -17.998 3.965 L -17.998 3.323 L 18.011 3.323 L 18.011 3.965 L 24.002 3.965 L 24.002 3.323 L 30.0 3.323 L 30.0 20.323 L 22.0 20.323 L 22.0 10.323 z M -14.17 -7.794 L -14.737 -7.414 L -15.117 -6.847 L -15.25 -6.177 L -15.117 -5.507 L -14.737 -4.94 L -14.17 -4.56 L -13.5 -4.427 L -12.83 -4.56 L -12.263 -4.94 L -11.883 -5.507 L -11.75 -6.177 L -11.883 -6.847 L -12.263 -7.414 L -12.83 -7.794 L -13.5 -7.927 z M 10.883 -6.847 L 10.75 -6.177 L 10.883 -5.507 L 11.263 -4.94 L 11.83 -4.56 L 12.5 -4.427 L 13.17 -4.56 L 13.737 -4.94 L 14.117 -5.507 L 14.25 -6.177 L 14.117 -6.847 L 13.737 -7.414 L 13.17 -7.794 L 12.5 -7.927 L 11.83 -7.794 L 11.263 -7.414 z M -14.737 8.06 L -14.17 8.44 L -13.5 8.573 L -12.83 8.44 L -12.263 8.06 L -11.883 7.493 L -11.75 6.823 L -11.883 6.153 L -12.263 5.586 L -12.83 5.206 L -13.5 5.073 L -14.17 5.206 L -14.737 5.586 L -15.117 6.153 L -15.25 6.823 L -15.117 7.493 z M 13.737 8.06 L 14.117 7.493 L 14.25 6.823 L 14.117 6.153 L 13.737 5.586 L 13.17 5.206 L 12.5 5.073 L 11.83 5.206 L 11.263 5.586 L 10.883 6.153 L 10.75 6.823 L 10.883 7.493 L 11.263 8.06 L 11.83 8.44 L 12.5 8.573 L 13.17 8.44 z"/>
		</g>
		<g id="z 2.522" transform="translate(20.0, 3025.5)">
			<text y="15" fill="#000" stroke="none">Layer 15, z 2.522</text>
			<!--bridgeRotation--> 1j
			<path transform="scale(3.7, -3.7) translate(30.0, 19.677)" d="M -30.0 10.323 L -30.0 -9.677 L 22.0 -9.677 L 22.0 -19.677 L 30.0 -19.677 L 30.0 20.323 L 22.0 20.323 L 22.0 10.323 z M 24.002 -2.721 L 18.011 -2.721 L 18.011 3.367 L 24.002 3.367 z M -17.998 -2.721 L -23.989 -2.721 L -23.989 3.367 L -17.998 3.367 z M -14.17 -7.794 L -14.737 -7.414 L -15.117 -6.847 L -15.25 -6.177 L -15.117 -5.507 L -14.737 -4.94 L -14.17 -4.56 L -13.5 -4.427 L -12.83 -4.56 L -12.263 -4.94 L -11.883 -5.507 L -11.75 -6.177 L -11.883 -6.847 L -12.263 -7.414 L -12.83 -7.794 L -13.5 -7.927 z M 10.883 -6.847 L 10.75 -6.177 L 10.883 -5.507 L 11.263 -4.94 L 11.83 -4.56 L 12.5 -4.427 L 13.17 -4.56 L 13.737 -4.94 L 14.117 -5.507 L 14.25 -6.177 L 14.117 -6.847 L 13.737 -7.414 L 13.17 -7.794 L 12.5 -7.927 L 11.83 -7.794 L 11.263 -7.414 z M -14.737 8.06 L -14.17 8.44 L -13.5 8.573 L -12.83 8.44 L -12.263 8.06 L -11.883 7.493 L -11.75 6.823 L -11.883 6.153 L -12.263 5.586 L -12.83 5.206 L -13.5 5.073 L -14.17 5.206 L -14.737 5.586 L -15.117 6.153 L -15.25 6.823 L -15.117 7.493 z M 14.117 6.153 L 13.737 5.586 L 13.17 5.206 L 12.5 5.073 L 11.83 5.206 L 11.263 5.586 L 10.883 6.153 L 10.75 6.823 L 10.883 7.493 L 11.263 8.06 L 11.83 8.44 L 12.5 8.573 L 13.17 8.44 L 13.737 8.06 L 14.117 7.493 L 14.25 6.823 z"/>
		</g>
		<g id="z 2.922" transform="translate(20.0, 3216.0)">
			<text y="15" fill="#000" stroke="none">Layer 16, z 2.922</text>
			<path transform="scale(3.7, -3.7) translate(30.0, 19.677)" d="M -30.0 10.323 L -30.0 -9.677 L 22.0 -9.677 L 22.0 -19.677 L 30.0 -19.677 L 30.0 20.323 L 22.0 20.323 L 22.0 10.323 z M -17.998 -2.122 L -23.989 -2.122 L -23.989 2.768 L -17.998 2.768 z M 24.002 -2.122 L 18.011 -2.122 L 18.011 2.768 L 24.002 2.768 z M -14.17 -7.794 L -14.737 -7.414 L -15.117 -6.847 L -15.25 -6.177 L -15.117 -5.507 L -14.737 -4.94 L -14.17 -4.56 L -13.5 -4.427 L -12.83 -4.56 L -12.263 -4.94 L -11.883 -5.507 L -11.75 -6.177 L -11.883 -6.847 L -12.263 -7.414 L -12.83 -7.794 L -13.5 -7.927 z M 10.883 -6.847 L 10.75 -6.177 L 10.883 -5.507 L 11.263 -4.94 L 11.83 -4.56 L 12.5 -4.427 L 13.17 -4.56 L 13.737 -4.94 L 14.117 -5.507 L 14.25 -6.177 L 14.117 -6.847 L 13.737 -7.414 L 13.17 -7.794 L 12.5 -7.927 L 11.83 -7.794 L 11.263 -7.414 z M -14.737 8.06 L -14.17 8.44 L -13.5 8.573 L -12.83 8.44 L -12.263 8.06 L -11.883 7.493 L -11.75 6.823 L -11.883 6.153 L -12.263 5.586 L -12.83 5.206 L -13.5 5.073 L -14.17 5.206 L -14.737 5.586 L -15.117 6.153 L -15.25 6.823 L -15.117 7.493 z M 14.117 6.153 L 13.737 5.586 L 13.17 5.206 L 12.5 5.073 L 11.83 5.206 L 11.263 5.586 L 10.883 6.153 L 10.75 6.823 L 10.883 7.493 L 11.263 8.06 L 11.83 8.44 L 12.5 8.573 L 13.17 8.44 L 13.737 8.06 L 14.117 7.493 L 14.25 6.823 z"/>
		</g>
		<g id="z 3.322" transform="translate(20.0, 3406.5)">
			<text y="15" fill="#000" stroke="none">Layer 17, z 3.322</text>
			<path transform="scale(3.7, -3.7) translate(30.0, 19.677)" d="M -30.0 10.323 L -30.0 -9.677 L 22.0 -9.677 L 22.0 -19.677 L 30.0 -19.677 L 30.0 20.323 L 22.0 20.323 L 22.0 10.323 z M -23.989 1.831 L -17.998 1.831 L -17.998 -1.185 L -23.989 -1.185 z M 18.011 -1.185 L 18.011 1.831 L 24.002 1.831 L 24.002 -1.185 z M -14.17 -7.794 L -14.737 -7.414 L -15.117 -6.847 L -15.25 -6.177 L -15.117 -5.507 L -14.737 -4.94 L -14.17 -4.56 L -13.5 -4.427 L -12.83 -4.56 L -12.263 -4.94 L -11.883 -5.507 L -11.75 -6.177 L -11.883 -6.847 L -12.263 -7.414 L -12.83 -7.794 L -13.5 -7.927 z M 10.883 -6.847 L 10.75 -6.177 L 10.883 -5.507 L 11.263 -4.94 L 11.83 -4.56 L 12.5 -4.427 L 13.17 -4.56 L 13.737 -4.94 L 14.117 -5.507 L 14.25 -6.177 L 14.117 -6.847 L 13.737 -7.414 L 13.17 -7.794 L 12.5 -7.927 L 11.83 -7.794 L 11.263 -7.414 z M -14.737 8.06 L -14.17 8.44 L -13.5 8.573 L -12.83 8.44 L -12.263 8.06 L -11.883 7.493 L -11.75 6.823 L -11.883 6.153 L -12.263 5.586 L -12.83 5.206 L -13.5 5.073 L -14.17 5.206 L -14.737 5.586 L -15.117 6.153 L -15.25 6.823 L -15.117 7.493 z M 14.117 6.153 L 13.737 5.586 L 13.17 5.206 L 12.5 5.073 L 11.83 5.206 L 11.263 5.586 L 10.883 6.153 L 10.75 6.823 L 10.883 7.493 L 11.263 8.06 L 11.83 8.44 L 12.5 8.573 L 13.17 8.44 L 13.737 8.06 L 14.117 7.493 L 14.25 6.823 z"/>
		</g>
		<g id="z 3.722" transform="translate(20.0, 3597.0)">
			<text y="15" fill="#000" stroke="none">Layer 18, z 3.722</text>
			<path transform="scale(3.7, -3.7) translate(30.0, 19.677)" d="M -30.0 10.323 L -30.0 -9.677 L 22.0 -9.677 L 22.0 -19.677 L 30.0 -19.677 L 30.0 20.323 L 22.0 20.323 L 22.0 10.323 z M -14.17 -7.794 L -14.737 -7.414 L -15.117 -6.847 L -15.25 -6.177 L -15.117 -5.507 L -14.737 -4.94 L -14.17 -4.56 L -13.5 -4.427 L -12.83 -4.56 L -12.263 -4.94 L -11.883 -5.507 L -11.75 -6.177 L -11.883 -6.847 L -12.263 -7.414 L -12.83 -7.794 L -13.5 -7.927 z M 10.883 -6.847 L 10.75 -6.177 L 10.883 -5.507 L 11.263 -4.94 L 11.83 -4.56 L 12.5 -4.427 L 13.17 -4.56 L 13.737 -4.94 L 14.117 -5.507 L 14.25 -6.177 L 14.117 -6.847 L 13.737 -7.414 L 13.17 -7.794 L 12.5 -7.927 L 11.83 -7.794 L 11.263 -7.414 z M -14.737 8.06 L -14.17 8.44 L -13.5 8.573 L -12.83 8.44 L -12.263 8.06 L -11.883 7.493 L -11.75 6.823 L -11.883 6.153 L -12.263 5.586 L -12.83 5.206 L -13.5 5.073 L -14.17 5.206 L -14.737 5.586 L -15.117 6.153 L -15.25 6.823 L -15.117 7.493 z M 14.117 6.153 L 13.737 5.586 L 13.17 5.206 L 12.5 5.073 L 11.83 5.206 L 11.263 5.586 L 10.883 6.153 L 10.75 6.823 L 10.883 7.493 L 11.263 8.06 L 11.83 8.44 L 12.5 8.573 L 13.17 8.44 L 13.737 8.06 L 14.117 7.493 L 14.25 6.823 z"/>
		</g>
		<g id="z 4.122" transform="translate(20.0, 3787.5)">
			<text y="15" fill="#000" stroke="none">Layer 19, z 4.122</text>
			<path transform="scale(3.7, -3.7) translate(30.0, 19.677)" d="M -30.0 10.323 L -30.0 -9.677 L 22.0 -9.677 L 22.0 -19.677 L 30.0 -19.677 L 30.0 20.323 L 22.0 20.323 L 22.0 10.323 z M -14.737 8.06 L -14.17 8.44 L -13.5 8.573 L -12.83 8.44 L -12.263 8.06 L -11.883 7.493 L -11.75 6.823 L -11.883 6.153 L -12.263 5.586 L -12.83 5.206 L -13.5 5.073 L -14.17 5.206 L -14.737 5.586 L -15.117 6.153 L -15.25 6.823 L -15.117 7.493 z M 14.117 6.153 L 13.737 5.586 L 13.17 5.206 L 12.5 5.073 L 11.83 5.206 L 11.263 5.586 L 10.883 6.153 L 10.75 6.823 L 10.883 7.493 L 11.263 8.06 L 11.83 8.44 L 12.5 8.573 L 13.17 8.44 L 13.737 8.06 L 14.117 7.493 L 14.25 6.823 z M -14.17 -7.794 L -14.737 -7.414 L -15.117 -6.847 L -15.25 -6.177 L -15.117 -5.507 L -14.737 -4.94 L -14.17 -4.56 L -13.5 -4.427 L -12.83 -4.56 L -12.263 -4.94 L -11.883 -5.507 L -11.75 -6.177 L -11.883 -6.847 L -12.263 -7.414 L -12.83 -7.794 L -13.5 -7.927 z M 10.883 -6.847 L 10.75 -6.177 L 10.883 -5.507 L 11.263 -4.94 L 11.83 -4.56 L 12.5 -4.427 L 13.17 -4.56 L 13.737 -4.94 L 14.117 -5.507 L 14.25 -6.177 L 14.117 -6.847 L 13.737 -7.414 L 13.17 -7.794 L 12.5 -7.927 L 11.83 -7.794 L 11.263 -7.414 z"/>
		</g>
		<g id="z 4.522" transform="translate(20.0, 3978.0)">
			<text y="15" fill="#000" stroke="none">Layer 20, z 4.522</text>
			<path transform="scale(3.7, -3.7) translate(30.0, 19.677)" d="M -30.0 10.323 L -30.0 -9.677 L 22.0 -9.677 L 22.0 -19.677 L 30.0 -19.677 L 30.0 20.323 L 22.0 20.323 L 22.0 10.323 z M -14.737 8.06 L -14.17 8.44 L -13.5 8.573 L -12.83 8.44 L -12.263 8.06 L -11.883 7.493 L -11.75 6.823 L -11.883 6.153 L -12.263 5.586 L -12.83 5.206 L -13.5 5.073 L -14.17 5.206 L -14.737 5.586 L -15.117 6.153 L -15.25 6.823 L -15.117 7.493 z M 14.117 6.153 L 13.737 5.586 L 13.17 5.206 L 12.5 5.073 L 11.83 5.206 L 11.263 5.586 L 10.883 6.153 L 10.75 6.823 L 10.883 7.493 L 11.263 8.06 L 11.83 8.44 L 12.5 8.573 L 13.17 8.44 L 13.737 8.06 L 14.117 7.493 L 14.25 6.823 z M -14.17 -7.794 L -14.737 -7.414 L -15.117 -6.847 L -15.25 -6.177 L -15.117 -5.507 L -14.737 -4.94 L -14.17 -4.56 L -13.5 -4.427 L -12.83 -4.56 L -12.263 -4.94 L -11.883 -5.507 L -11.75 -6.177 L -11.883 -6.847 L -12.263 -7.414 L -12.83 -7.794 L -13.5 -7.927 z M 10.883 -6.847 L 10.75 -6.177 L 10.883 -5.507 L 11.263 -4.94 L 11.83 -4.56 L 12.5 -4.427 L 13.17 -4.56 L 13.737 -4.94 L 14.117 -5.507 L 14.25 -6.177 L 14.117 -6.847 L 13.737 -7.414 L 13.17 -7.794 L 12.5 -7.927 L 11.83 -7.794 L 11.263 -7.414 z"/>
		</g>
		<g id="z 4.922" transform="translate(20.0, 4168.5)">
			<text y="15" fill="#000" stroke="none">Layer 21, z 4.922</text>
			<path transform="scale(3.7, -3.7) translate(30.0, 19.677)" d="M -30.0 10.323 L -30.0 -9.677 L 22.0 -9.677 L 22.0 -19.677 L 30.0 -19.677 L 30.0 20.323 L 22.0 20.323 L 22.0 10.323 z M -14.737 8.06 L -14.17 8.44 L -13.5 8.573 L -12.83 8.44 L -12.263 8.06 L -11.883 7.493 L -11.75 6.823 L -11.883 6.153 L -12.263 5.586 L -12.83 5.206 L -13.5 5.073 L -14.17 5.206 L -14.737 5.586 L -15.117 6.153 L -15.25 6.823 L -15.117 7.493 z M 14.117 6.153 L 13.737 5.586 L 13.17 5.206 L 12.5 5.073 L 11.83 5.206 L 11.263 5.586 L 10.883 6.153 L 10.75 6.823 L 10.883 7.493 L 11.263 8.06 L 11.83 8.44 L 12.5 8.573 L 13.17 8.44 L 13.737 8.06 L 14.117 7.493 L 14.25 6.823 z M -14.17 -7.794 L -14.737 -7.414 L -15.117 -6.847 L -15.25 -6.177 L -15.117 -5.507 L -14.737 -4.94 L -14.17 -4.56 L -13.5 -4.427 L -12.83 -4.56 L -12.263 -4.94 L -11.883 -5.507 L -11.75 -6.177 L -11.883 -6.847 L -12.263 -7.414 L -12.83 -7.794 L -13.5 -7.927 z M 10.883 -6.847 L 10.75 -6.177 L 10.883 -5.507 L 11.263 -4.94 L 11.83 -4.56 L 12.5 -4.427 L 13.17 -4.56 L 13.737 -4.94 L 14.117 -5.507 L 14.25 -6.177 L 14.117 -6.847 L 13.737 -7.414 L 13.17 -7.794 L 12.5 -7.927 L 11.83 -7.794 L 11.263 -7.414 z"/>
		</g>
		<g id="z 5.322" transform="translate(20.0, 4359.0)">
			<text y="15" fill="#000" stroke="none">Layer 22, z 5.322</text>
			<path transform="scale(3.7, -3.7) translate(30.0, 19.677)" d="M -30.0 10.323 L -30.0 -9.677 L 22.0 -9.677 L 22.0 -19.677 L 30.0 -19.677 L 30.0 20.323 L 22.0 20.323 L 22.0 10.323 z M -14.737 8.06 L -14.17 8.44 L -13.5 8.573 L -12.83 8.44 L -12.263 8.06 L -11.883 7.493 L -11.75 6.823 L -11.883 6.153 L -12.263 5.586 L -12.83 5.206 L -13.5 5.073 L -14.17 5.206 L -14.737 5.586 L -15.117 6.153 L -15.25 6.823 L -15.117 7.493 z M 14.117 6.153 L 13.737 5.586 L 13.17 5.206 L 12.5 5.073 L 11.83 5.206 L 11.263 5.586 L 10.883 6.153 L 10.75 6.823 L 10.883 7.493 L 11.263 8.06 L 11.83 8.44 L 12.5 8.573 L 13.17 8.44 L 13.737 8.06 L 14.117 7.493 L 14.25 6.823 z M -14.17 -7.794 L -14.737 -7.414 L -15.117 -6.847 L -15.25 -6.177 L -15.117 -5.507 L -14.737 -4.94 L -14.17 -4.56 L -13.5 -4.427 L -12.83 -4.56 L -12.263 -4.94 L -11.883 -5.507 L -11.75 -6.177 L -11.883 -6.847 L -12.263 -7.414 L -12.83 -7.794 L -13.5 -7.927 z M 10.883 -6.847 L 10.75 -6.177 L 10.883 -5.507 L 11.263 -4.94 L 11.83 -4.56 L 12.5 -4.427 L 13.17 -4.56 L 13.737 -4.94 L 14.117 -5.507 L 14.25 -6.177 L 14.117 -6.847 L 13.737 -7.414 L 13.17 -7.794 L 12.5 -7.927 L 11.83 -7.794 L 11.263 -7.414 z"/>
		</g>
		<g id="z 5.722" transform="translate(20.0, 4549.5)">
			<text y="15" fill="#000" stroke="none">Layer 23, z 5.722</text>
			<path transform="scale(3.7, -3.7) translate(30.0, 19.677)" d="M -30.0 10.323 L -30.0 -9.677 L 22.0 -9.677 L 22.0 -19.677 L 30.0 -19.677 L 30.0 20.323 L 22.0 20.323 L 22.0 10.323 z M -14.737 8.06 L -14.17 8.44 L -13.5 8.573 L -12.83 8.44 L -12.263 8.06 L -11.883 7.493 L -11.75 6.823 L -11.883 6.153 L -12.263 5.586 L -12.83 5.206 L -13.5 5.073 L -14.17 5.206 L -14.737 5.586 L -15.117 6.153 L -15.25 6.823 L -15.117 7.493 z M 14.117 6.153 L 13.737 5.586 L 13.17 5.206 L 12.5 5.073 L 11.83 5.206 L 11.263 5.586 L 10.883 6.153 L 10.75 6.823 L 10.883 7.493 L 11.263 8.06 L 11.83 8.44 L 12.5 8.573 L 13.17 8.44 L 13.737 8.06 L 14.117 7.493 L 14.25 6.823 z M -14.17 -7.794 L -14.737 -7.414 L -15.117 -6.847 L -15.25 -6.177 L -15.117 -5.507 L -14.737 -4.94 L -14.17 -4.56 L -13.5 -4.427 L -12.83 -4.56 L -12.263 -4.94 L -11.883 -5.507 L -11.75 -6.177 L -11.883 -6.847 L -12.263 -7.414 L -12.83 -7.794 L -13.5 -7.927 z M 10.883 -6.847 L 10.75 -6.177 L 10.883 -5.507 L 11.263 -4.94 L 11.83 -4.56 L 12.5 -4.427 L 13.17 -4.56 L 13.737 -4.94 L 14.117 -5.507 L 14.25 -6.177 L 14.117 -6.847 L 13.737 -7.414 L 13.17 -7.794 L 12.5 -7.927 L 11.83 -7.794 L 11.263 -7.414 z"/>
		</g>
		<g id="z 6.122" transform="translate(20.0, 4740.0)">
			<text y="15" fill="#000" stroke="none">Layer 24, z 6.122</text>
			<path transform="scale(3.7, -3.7) translate(30.0, 19.677)" d="M -30.0 10.323 L -30.0 -9.677 L 22.0 -9.677 L 22.0 -15.926 L 30.0 -15.926 L 30.0 16.572 L 22.0 16.572 L 22.0 10.323 z M 30.0 20.323 L 22.0 20.323 L 22.0 17.074 L 30.0 17.074 L 30.0 18.009 z M 22.0 -19.677 L 30.0 -19.677 L 30.0 -16.428 L 22.0 -16.428 L 22.0 -17.794 z M -14.737 8.06 L -14.17 8.44 L -13.5 8.573 L -12.83 8.44 L -12.263 8.06 L -11.883 7.493 L -11.75 6.823 L -11.883 6.153 L -12.263 5.586 L -12.83 5.206 L -13.5 5.073 L -14.17 5.206 L -14.737 5.586 L -15.117 6.153 L -15.25 6.823 L -15.117 7.493 z M 14.117 6.153 L 13.737 5.586 L 13.17 5.206 L 12.5 5.073 L 11.83 5.206 L 11.263 5.586 L 10.883 6.153 L 10.75 6.823 L 10.883 7.493 L 11.263 8.06 L 11.83 8.44 L 12.5 8.573 L 13.17 8.44 L 13.737 8.06 L 14.117 7.493 L 14.25 6.823 z M -14.17 -7.794 L -14.737 -7.414 L -15.117 -6.847 L -15.25 -6.177 L -15.117 -5.507 L -14.737 -4.94 L -14.17 -4.56 L -13.5 -4.427 L -12.83 -4.56 L -12.263 -4.94 L -11.883 -5.507 L -11.75 -6.177 L -11.883 -6.847 L -12.263 -7.414 L -12.83 -7.794 L -13.5 -7.927 z M 10.883 -6.847 L 10.75 -6.177 L 10.883 -5.507 L 11.263 -4.94 L 11.83 -4.56 L 12.5 -4.427 L 13.17 -4.56 L 13.737 -4.94 L 14.117 -5.507 L 14.25 -6.177 L 14.117 -6.847 L 13.737 -7.414 L 13.17 -7.794 L 12.5 -7.927 L 11.83 -7.794 L 11.263 -7.414 z"/>
		</g>
		<g id="z 6.522" transform="translate(20.0, 4930.5)">
			<text y="15" fill="#000" stroke="none">Layer 25, z 6.522</text>
			<path transform="scale(3.7, -3.7) translate(30.0, 19.677)" d="M -30.0 10.323 L -30.0 -9.677 L 22.0 -9.677 L 22.0 -15.033 L 30.0 -15.033 L 30.0 15.679 L 22.0 15.679 L 22.0 10.323 z M 30.0 20.323 L 22.0 20.323 L 22.0 17.967 L 30.0 17.967 z M 22.0 -19.677 L 30.0 -19.677 L 30.0 -17.321 L 22.0 -17.321 z M -14.737 8.06 L -14.17 8.44 L -13.5 8.573 L -12.83 8.44 L -12.263 8.06 L -11.883 7.493 L -11.75 6.823 L -11.883 6.153 L -12.263 5.586 L -12.83 5.206 L -13.5 5.073 L -14.17 5.206 L -14.737 5.586 L -15.117 6.153 L -15.25 6.823 L -15.117 7.493 z M 14.117 6.153 L 13.737 5.586 L 13.17 5.206 L 12.5 5.073 L 11.83 5.206 L 11.263 5.586 L 10.883 6.153 L 10.75 6.823 L 10.883 7.493 L 11.263 8.06 L 11.83 8.44 L 12.5 8.573 L 13.17 8.44 L 13.737 8.06 L 14.117 7.493 L 14.25 6.823 z M -14.17 -7.794 L -14.737 -7.414 L -15.117 -6.847 L -15.25 -6.177 L -15.117 -5.507 L -14.737 -4.94 L -14.17 -4.56 L -13.5 -4.427 L -12.83 -4.56 L -12.263 -4.94 L -11.883 -5.507 L -11.75 -6.177 L -11.883 -6.847 L -12.263 -7.414 L -12.83 -7.794 L -13.5 -7.927 z M 10.883 -6.847 L 10.75 -6.177 L 10.883 -5.507 L 11.263 -4.94 L 11.83 -4.56 L 12.5 -4.427 L 13.17 -4.56 L 13.737 -4.94 L 14.117 -5.507 L 14.25 -6.177 L 14.117 -6.847 L 13.737 -7.414 L 13.17 -7.794 L 12.5 -7.927 L 11.83 -7.794 L 11.263 -7.414 z"/>
		</g>
		<g id="z 6.922" transform="translate(20.0, 5121.0)">
			<text y="15" fill="#000" stroke="none">Layer 26, z 6.922</text>
			<path transform="scale(3.7, -3.7) translate(30.0, 19.677)" d="M -30.0 10.323 L -30.0 -9.677 L 22.0 -9.677 L 22.0 -14.714 L 30.0 -14.714 L 30.0 15.36 L 22.0 15.36 L 22.0 10.323 z M 22.0 -19.677 L 30.0 -19.677 L 30.0 -17.64 L 22.0 -17.64 L 22.0 -18.912 z M 30.0 20.323 L 22.0 20.323 L 22.0 18.286 L 30.0 18.286 z M -14.737 8.06 L -14.17 8.44 L -13.5 8.573 L -12.83 8.44 L -12.263 8.06 L -11.883 7.493 L -11.75 6.823 L -11.883 6.153 L -12.263 5.586 L -12.83 5.206 L -13.5 5.073 L -14.17 5.206 L -14.737 5.586 L -15.117 6.153 L -15.25 6.823 L -15.117 7.493 z M 14.117 6.153 L 13.737 5.586 L 13.17 5.206 L 12.5 5.073 L 11.83 5.206 L 11.263 5.586 L 10.883 6.153 L 10.75 6.823 L 10.883 7.493 L 11.263 8.06 L 11.83 8.44 L 12.5 8.573 L 13.17 8.44 L 13.737 8.06 L 14.117 7.493 L 14.25 6.823 z M -14.17 -7.794 L -14.737 -7.414 L -15.117 -6.847 L -15.25 -6.177 L -15.117 -5.507 L -14.737 -4.94 L -14.17 -4.56 L -13.5 -4.427 L -12.83 -4.56 L -12.263 -4.94 L -11.883 -5.507 L -11.75 -6.177 L -11.883 -6.847 L -12.263 -7.414 L -12.83 -7.794 L -13.5 -7.927 z M 10.883 -6.847 L 10.75 -6.177 L 10.883 -5.507 L 11.263 -4.94 L 11.83 -4.56 L 12.5 -4.427 L 13.17 -4.56 L 13.737 -4.94 L 14.117 -5.507 L 14.25 -6.177 L 14.117 -6.847 L 13.737 -7.414 L 13.17 -7.794 L 12.5 -7.927 L 11.83 -7.794 L 11.263 -7.414 z"/>
		</g>
		<g id="z 7.322" transform="translate(20.0, 5311.5)">
			<text y="15" fill="#000" stroke="none">Layer 27, z 7.322</text>
			<path transform="scale(3.7, -3.7) translate(30.0, 19.677)" d="M -30.0 10.323 L -30.0 -9.677 L 22.0 -9.677 L 22.0 -14.526 L 30.0 -14.526 L 30.0 15.172 L 22.0 15.172 L 22.0 10.323 z M 22.0 -19.677 L 30.0 -19.677 L 30.0 -17.828 L 22.0 -17.828 L 22.0 -18.981 z M 30.0 20.323 L 22.0 20.323 L 22.0 18.474 L 30.0 18.474 z M -14.737 8.06 L -14.17 8.44 L -13.5 8.573 L -12.83 8.44 L -12.263 8.06 L -11.883 7.493 L -11.75 6.823 L -11.883 6.153 L -12.263 5.586 L -12.83 5.206 L -13.5 5.073 L -14.17 5.206 L -14.737 5.586 L -15.117 6.153 L -15.25 6.823 L -15.117 7.493 z M 13.737 8.06 L 14.117 7.493 L 14.25 6.823 L 14.117 6.153 L 13.737 5.586 L 13.17 5.206 L 12.5 5.073 L 11.83 5.206 L 11.263 5.586 L 10.883 6.153 L 10.75 6.823 L 10.883 7.493 L 11.263 8.06 L 11.83 8.44 L 12.5 8.573 L 13.17 8.44 z M -14.17 -7.794 L -14.737 -7.414 L -15.117 -6.847 L -15.25 -6.177 L -15.117 -5.507 L -14.737 -4.94 L -14.17 -4.56 L -13.5 -4.427 L -12.83 -4.56 L -12.263 -4.94 L -11.883 -5.507 L -11.75 -6.177 L -11.883 -6.847 L -12.263 -7.414 L -12.83 -7.794 L -13.5 -7.927 z M 10.883 -6.847 L 10.75 -6.177 L 10.883 -5.507 L 11.263 -4.94 L 11.83 -4.56 L 12.5 -4.427 L 13.17 -4.56 L 13.737 -4.94 L 14.117 -5.507 L 14.25 -6.177 L 14.117 -6.847 L 13.737 -7.414 L 13.17 -7.794 L 12.5 -7.927 L 11.83 -7.794 L 11.263 -7.414 z"/>
		</g>
		<g id="z 7.722" transform="translate(20.0, 5502.0)">
			<text y="15" fill="#000" stroke="none">Layer 28, z 7.722</text>
			<path transform="scale(3.7, -3.7) translate(30.0, 19.677)" d="M -30.0 10.323 L -30.0 -9.677 L 22.0 -9.677 L 22.0 -14.447 L 30.0 -14.447 L 30.0 15.093 L 22.0 15.093 L 22.0 10.323 z M 22.0 -19.677 L 30.0 -19.677 L 30.0 -17.907 L 22.0 -17.907 L 22.0 -19.051 z M 30.0 20.323 L 22.0 20.323 L 22.0 18.553 L 30.0 18.553 z M -14.737 8.06 L -14.17 8.44 L -13.5 8.573 L -12.83 8.44 L -12.263 8.06 L -11.883 7.493 L -11.75 6.823 L -11.883 6.153 L -12.263 5.586 L -12.83 5.206 L -13.5 5.073 L -14.17 5.206 L -14.737 5.586 L -15.117 6.153 L -15.25 6.823 L -15.117 7.493 z M -14.17 -7.794 L -14.737 -7.414 L -15.117 -6.847 L -15.25 -6.177 L -15.117 -5.507 L -14.737 -4.94 L -14.17 -4.56 L -13.5 -4.427 L -12.83 -4.56 L -12.263 -4.94 L -11.883 -5.507 L -11.75 -6.177 L -11.883 -6.847 L -12.263 -7.414 L -12.83 -7.794 L -13.5 -7.927 z M 13.737 8.06 L 14.117 7.493 L 14.25 6.823 L 14.117 6.153 L 13.737 5.586 L 13.17 5.206 L 12.5 5.073 L 11.83 5.206 L 11.263 5.586 L 10.883 6.153 L 10.75 6.823 L 10.883 7.493 L 11.263 8.06 L 11.83 8.44 L 12.5 8.573 L 13.17 8.44 z M 10.883 -6.847 L 10.75 -6.177 L 10.883 -5.507 L 11.263 -4.94 L 11.83 -4.56 L 12.5 -4.427 L 13.17 -4.56 L 13.737 -4.94 L 14.117 -5.507 L 14.25 -6.177 L 14.117 -6.847 L 13.737 -7.414 L 13.17 -7.794 L 12.5 -7.927 L 11.83 -7.794 L 11.263 -7.414 z"/>
		</g>
		<g id="z 8.122" transform="translate(20.0, 5692.5)">
			<text y="15" fill="#000" stroke="none">Layer 29, z 8.122</text>
			<path transform="scale(3.7, -3.7) translate(30.0, 19.677)" d="M -30.0 10.323 L -30.0 -9.677 L 22.0 -9.677 L 22.0 -14.487 L 30.0 -14.487 L 30.0 15.133 L 22.0 15.133 L 22.0 10.323 z M 22.0 -19.677 L 30.0 -19.677 L 30.0 -17.867 L 22.0 -17.867 L 22.0 -19.121 z M 30.0 20.323 L 22.0 20.323 L 22.0 18.513 L 30.0 18.513 z M -14.737 8.06 L -14.17 8.44 L -13.5 8.573 L -12.83 8.44 L -12.263 8.06 L -11.883 7.493 L -11.75 6.823 L -11.883 6.153 L -12.263 5.586 L -12.83 5.206 L -13.5 5.073 L -14.17 5.206 L -14.737 5.586 L -15.117 6.153 L -15.25 6.823 L -15.117 7.493 z M -14.17 -7.794 L -14.737 -7.414 L -15.117 -6.847 L -15.25 -6.177 L -15.117 -5.507 L -14.737 -4.94 L -14.17 -4.56 L -13.5 -4.427 L -12.83 -4.56 L -12.263 -4.94 L -11.883 -5.507 L -11.75 -6.177 L -11.883 -6.847 L -12.263 -7.414 L -12.83 -7.794 L -13.5 -7.927 z M 13.737 8.06 L 14.117 7.493 L 14.25 6.823 L 14.117 6.153 L 13.737 5.586 L 13.17 5.206 L 12.5 5.073 L 11.83 5.206 L 11.263 5.586 L 10.883 6.153 L 10.75 6.823 L 10.883 7.493 L 11.263 8.06 L 11.83 8.44 L 12.5 8.573 L 13.17 8.44 z M 10.883 -6.847 L 10.75 -6.177 L 10.883 -5.507 L 11.263 -4.94 L 11.83 -4.56 L 12.5 -4.427 L 13.17 -4.56 L 13.737 -4.94 L 14.117 -5.507 L 14.25 -6.177 L 14.117 -6.847 L 13.737 -7.414 L 13.17 -7.794 L 12.5 -7.927 L 11.83 -7.794 L 11.263 -7.414 z"/>
		</g>
		<g id="z 8.522" transform="translate(20.0, 5883.0)">
			<text y="15" fill="#000" stroke="none">Layer 30, z 8.522</text>
			<path transform="scale(3.7, -3.7) translate(30.0, 19.677)" d="M -30.0 10.323 L -30.0 -9.677 L 22.0 -9.677 L 22.0 -14.58 L 30.0 -14.58 L 30.0 15.226 L 22.0 15.226 L 22.0 10.323 z M 30.0 -17.774 L 22.0 -17.774 L 22.0 -19.677 L 30.0 -19.677 z M 30.0 20.323 L 22.0 20.323 L 22.0 18.42 L 30.0 18.42 z M -14.737 8.06 L -14.17 8.44 L -13.5 8.573 L -12.83 8.44 L -12.263 8.06 L -11.883 7.493 L -11.75 6.823 L -11.883 6.153 L -12.263 5.586 L -12.83 5.206 L -13.5 5.073 L -14.17 5.206 L -14.737 5.586 L -15.117 6.153 L -15.25 6.823 L -15.117 7.493 z M -14.17 -7.794 L -14.737 -7.414 L -15.117 -6.847 L -15.25 -6.177 L -15.117 -5.507 L -14.737 -4.94 L -14.17 -4.56 L -13.5 -4.427 L -12.83 -4.56 L -12.263 -4.94 L -11.883 -5.507 L -11.75 -6.177 L -11.883 -6.847 L -12.263 -7.414 L -12.83 -7.794 L -13.5 -7.927 z M 14.117 6.153 L 13.737 5.586 L 13.17 5.206 L 12.5 5.073 L 11.83 5.206 L 11.263 5.586 L 10.883 6.153 L 10.75 6.823 L 10.883 7.493 L 11.263 8.06 L 11.83 8.44 L 12.5 8.573 L 13.17 8.44 L 13.737 8.06 L 14.117 7.493 L 14.25 6.823 z M 10.883 -6.847 L 10.75 -6.177 L 10.883 -5.507 L 11.263 -4.94 L 11.83 -4.56 L 12.5 -4.427 L 13.17 -4.56 L 13.737 -4.94 L 14.117 -5.507 L 14.25 -6.177 L 14.117 -6.847 L 13.737 -7.414 L 13.17 -7.794 L 12.5 -7.927 L 11.83 -7.794 L 11.263 -7.414 z"/>
		</g>
		<g id="z 8.922" transform="translate(20.0, 6073.5)">
			<text y="15" fill="#000" stroke="none">Layer 31, z 8.922</text>
			<path transform="scale(3.7, -3.7) translate(30.0, 19.677)" d="M -30.0 10.323 L -30.0 -9.677 L 22.0 -9.677 L 22.0 -14.848 L 30.0 -14.848 L 30.0 15.494 L 22.0 15.494 L 22.0 10.323 z M 30.0 -17.506 L 22.0 -17.506 L 22.0 -19.677 L 30.0 -19.677 z M 30.0 20.323 L 22.0 20.323 L 22.0 18.152 L 30.0 18.152 z M -14.737 8.06 L -14.17 8.44 L -13.5 8.573 L -12.83 8.44 L -12.263 8.06 L -11.883 7.493 L -11.75 6.823 L -11.883 6.153 L -12.263 5.586 L -12.83 5.206 L -13.5 5.073 L -14.17 5.206 L -14.737 5.586 L -15.117 6.153 L -15.25 6.823 L -15.117 7.493 z M -14.17 -7.794 L -14.737 -7.414 L -15.117 -6.847 L -15.25 -6.177 L -15.117 -5.507 L -14.737 -4.94 L -14.17 -4.56 L -13.5 -4.427 L -12.83 -4.56 L -12.263 -4.94 L -11.883 -5.507 L -11.75 -6.177 L -11.883 -6.847 L -12.263 -7.414 L -12.83 -7.794 L -13.5 -7.927 z M 14.117 6.153 L 13.737 5.586 L 13.17 5.206 L 12.5 5.073 L 11.83 5.206 L 11.263 5.586 L 10.883 6.153 L 10.75 6.823 L 10.883 7.493 L 11.263 8.06 L 11.83 8.44 L 12.5 8.573 L 13.17 8.44 L 13.737 8.06 L 14.117 7.493 L 14.25 6.823 z M 10.883 -6.847 L 10.75 -6.177 L 10.883 -5.507 L 11.263 -4.94 L 11.83 -4.56 L 12.5 -4.427 L 13.17 -4.56 L 13.737 -4.94 L 14.117 -5.507 L 14.25 -6.177 L 14.117 -6.847 L 13.737 -7.414 L 13.17 -7.794 L 12.5 -7.927 L 11.83 -7.794 L 11.263 -7.414 z"/>
		</g>
		<g id="z 9.322" transform="translate(20.0, 6264.0)">
			<text y="15" fill="#000" stroke="none">Layer 32, z 9.322</text>
			<path transform="scale(3.7, -3.7) translate(30.0, 19.677)" d="M -30.0 10.323 L -30.0 -9.677 L 22.0 -9.677 L 22.0 -15.333 L 30.0 -15.333 L 30.0 15.979 L 22.0 15.979 L 22.0 10.323 z M 30.0 -17.021 L 22.0 -17.021 L 22.0 -19.677 L 30.0 -19.677 z M 30.0 20.323 L 22.0 20.323 L 22.0 17.667 L 30.0 17.667 z M -14.737 8.06 L -14.17 8.44 L -13.5 8.573 L -12.83 8.44 L -12.263 8.06 L -11.883 7.493 L -11.75 6.823 L -11.883 6.153 L -12.263 5.586 L -12.83 5.206 L -13.5 5.073 L -14.17 5.206 L -14.737 5.586 L -15.117 6.153 L -15.25 6.823 L -15.117 7.493 z M -14.17 -7.794 L -14.737 -7.414 L -15.117 -6.847 L -15.25 -6.177 L -15.117 -5.507 L -14.737 -4.94 L -14.17 -4.56 L -13.5 -4.427 L -12.83 -4.56 L -12.263 -4.94 L -11.883 -5.507 L -11.75 -6.177 L -11.883 -6.847 L -12.263 -7.414 L -12.83 -7.794 L -13.5 -7.927 z M 14.117 6.153 L 13.737 5.586 L 13.17 5.206 L 12.5 5.073 L 11.83 5.206 L 11.263 5.586 L 10.883 6.153 L 10.75 6.823 L 10.883 7.493 L 11.263 8.06 L 11.83 8.44 L 12.5 8.573 L 13.17 8.44 L 13.737 8.06 L 14.117 7.493 L 14.25 6.823 z M 10.883 -6.847 L 10.75 -6.177 L 10.883 -5.507 L 11.263 -4.94 L 11.83 -4.56 L 12.5 -4.427 L 13.17 -4.56 L 13.737 -4.94 L 14.117 -5.507 L 14.25 -6.177 L 14.117 -6.847 L 13.737 -7.414 L 13.17 -7.794 L 12.5 -7.927 L 11.83 -7.794 L 11.263 -7.414 z"/>
		</g>
		<g id="z 9.722" transform="translate(20.0, 6454.5)">
			<text y="15" fill="#000" stroke="none">Layer 33, z 9.722</text>
			<!--bridgeRotation--> 1j
			<path transform="scale(3.7, -3.7) translate(30.0, 19.677)" d="M 22.0 -11.848 L 22.0 -19.677 L 30.0 -19.677 L 30.0 20.323 L 22.0 20.323 L 22.0 10.323 L -30.0 10.323 L -30.0 -9.677 L 22.0 -9.677 z M -16.94 -1.574 L -17.33 -0.914 L -17.51 -0.254 L -17.54 0.196 L -17.36 0.976 L -17.0 1.576 L -15.11 3.436 L -13.19 1.486 L -12.92 1.006 L -12.74 0.346 L -12.74 -0.374 L -12.98 -1.094 L -13.46 -1.724 L -14.0 -2.084 L -14.69 -2.324 L -15.65 -2.324 L -16.34 -2.054 z M -11.93 -2.144 L -11.93 3.286 L -8.99 3.256 L -8.42 3.046 L -8.09 2.716 L -7.94 2.356 L -7.88 1.666 L -8.06 1.096 L -8.6 0.556 L -8.93 0.346 L -7.16 -2.174 L -8.48 -2.144 L -9.98 0.046 L -10.82 0.016 L -10.85 -2.174 z M 2.27 3.286 L 5.21 3.256 L 5.78 3.046 L 6.11 2.716 L 6.26 2.356 L 6.32 1.666 L 6.14 1.096 L 5.6 0.556 L 5.27 0.346 L 7.04 -2.174 L 5.72 -2.144 L 4.22 0.046 L 3.38 0.016 L 3.35 -2.174 L 2.27 -2.144 z M 11.76 1.886 L 12.9 1.856 L 12.93 1.226 L 13.44 1.676 L 13.89 1.856 L 14.52 1.856 L 15.0 1.586 L 15.36 1.076 L 15.54 0.356 L 15.54 -0.604 L 15.33 -1.234 L 15.0 -1.684 L 14.61 -1.954 L 14.04 -2.134 L 12.9 -2.194 L 12.87 -3.514 L 11.76 -3.484 z M -0.74 1.666 L -0.29 1.846 L 0.34 1.846 L 0.82 1.576 L 1.18 1.066 L 1.36 0.346 L 1.36 -0.614 L 1.15 -1.244 L 0.82 -1.694 L 0.43 -1.964 L -0.14 -2.144 L -1.28 -2.204 L -1.31 -3.524 L -2.42 -3.494 L -2.42 1.876 L -1.28 1.846 L -1.25 1.216 z M 9.227 -2.092 L 8.747 -2.242 L 8.147 -2.182 L 7.757 -1.942 L 7.547 -1.642 L 7.427 -1.162 L 7.427 -0.892 L 7.607 -0.382 L 7.997 -0.052 L 8.537 0.128 L 9.617 0.248 L 9.587 0.788 L 9.317 1.058 L 8.837 1.118 L 7.787 0.788 L 7.817 1.538 L 8.567 1.748 L 9.497 1.808 L 10.097 1.658 L 10.487 1.328 L 10.667 0.878 L 10.727 -1.312 L 10.907 -1.462 L 11.147 -1.492 L 11.147 -2.152 L 10.367 -2.242 L 9.947 -2.092 L 9.617 -1.702 z M -4.01 1.636 L -3.68 1.276 L -3.47 0.796 L -3.35 0.016 L -3.35 -0.374 L -5.69 -0.404 L -5.51 -0.944 L -5.18 -1.244 L -4.7 -1.394 L -3.95 -1.364 L -3.32 -1.184 L -3.35 -1.964 L -4.28 -2.144 L -5.21 -2.144 L -5.93 -1.904 L -6.41 -1.484 L -6.68 -1.034 L -6.83 -0.434 L -6.86 0.226 L -6.65 0.946 L -6.32 1.396 L -5.81 1.726 L -5.3 1.846 L -4.52 1.846 z M -11.75 6.823 L -11.883 6.153 L -12.263 5.586 L -12.83 5.206 L -13.5 5.073 L -14.17 5.206 L -14.737 5.586 L -15.117 6.153 L -15.25 6.823 L -15.117 7.493 L -14.737 8.06 L -14.17 8.44 L -13.5 8.573 L -12.83 8.44 L -12.263 8.06 L -11.883 7.493 z M -11.883 -6.847 L -12.263 -7.414 L -12.83 -7.794 L -13.5 -7.927 L -14.17 -7.794 L -14.737 -7.414 L -15.117 -6.847 L -15.25 -6.177 L -15.117 -5.507 L -14.737 -4.94 L -14.17 -4.56 L -13.5 -4.427 L -12.83 -4.56 L -12.263 -4.94 L -11.883 -5.507 L -11.75 -6.177 z M 13.17 -4.56 L 13.737 -4.94 L 14.117 -5.507 L 14.25 -6.177 L 14.117 -6.847 L 13.737 -7.414 L 13.17 -7.794 L 12.5 -7.927 L 11.83 -7.794 L 11.263 -7.414 L 10.883 -6.847 L 10.75 -6.177 L 10.883 -5.507 L 11.263 -4.94 L 11.83 -4.56 L 12.5 -4.427 z M 11.83 5.206 L 11.263 5.586 L 10.883 6.153 L 10.75 6.823 L 10.883 7.493 L 11.263 8.06 L 11.83 8.44 L 12.5 8.573 L 13.17 8.44 L 13.737 8.06 L 14.117 7.493 L 14.25 6.823 L 14.117 6.153 L 13.737 5.586 L 13.17 5.206 L 12.5 5.073 z M -1.28 -1.394 L -1.1 -1.454 L -0.53 -1.454 L -0.17 -1.304 L 0.1 -0.914 L 0.19 -0.224 L 0.1 0.496 L -0.08 0.856 L -0.41 1.006 L -0.8 0.886 L -1.28 0.436 z M 14.28 -0.904 L 14.37 -0.214 L 14.28 0.506 L 14.1 0.866 L 13.77 1.016 L 13.38 0.896 L 12.9 0.446 L 12.9 -1.384 L 13.08 -1.444 L 13.65 -1.444 L 14.01 -1.294 z M -9.62 2.476 L -10.82 2.506 L -10.82 0.856 L -10.28 0.826 L -9.68 0.916 L -9.32 1.096 L -9.08 1.456 L -9.08 1.996 L -9.26 2.296 z M 4.52 0.916 L 4.88 1.096 L 5.12 1.456 L 5.12 1.996 L 4.94 2.296 L 4.58 2.476 L 3.38 2.506 L 3.38 0.856 L 3.92 0.826 z M 9.167 -0.412 L 8.687 -0.562 L 8.507 -0.862 L 8.537 -1.162 L 8.777 -1.432 L 9.257 -1.432 L 9.587 -1.192 L 9.617 -0.442 z M -4.457 0.839 L -4.667 1.109 L -5.177 1.109 L -5.447 0.869 L -5.627 0.389 L -5.627 0.299 L -4.367 0.269 z"/>
		</g>
		<g id="z 10.122" transform="translate(20.0, 6645.0)">
			<text y="15" fill="#000" stroke="none">Layer 34, z 10.122</text>
			<path transform="scale(3.7, -3.7) translate(30.0, 19.677)" d="M 22.0 -11.306 L 22.0 -19.677 L 30.0 -19.677 L 30.0 20.323 L 22.0 20.323 L 22.0 10.323 L -30.0 10.323 L -30.0 -9.677 L 22.0 -9.677 z M -16.94 -1.574 L -17.33 -0.914 L -17.51 -0.254 L -17.54 0.196 L -17.36 0.976 L -17.0 1.576 L -15.11 3.436 L -13.19 1.486 L -12.92 1.006 L -12.74 0.346 L -12.74 -0.374 L -12.98 -1.094 L -13.46 -1.724 L -14.0 -2.084 L -14.69 -2.324 L -15.65 -2.324 L -16.34 -2.054 z M -11.93 -2.144 L -11.93 3.286 L -8.99 3.256 L -8.42 3.046 L -8.09 2.716 L -7.94 2.356 L -7.88 1.666 L -8.06 1.096 L -8.6 0.556 L -8.93 0.346 L -7.16 -2.174 L -8.48 -2.144 L -9.98 0.046 L -10.82 0.016 L -10.85 -2.174 z M 2.27 3.286 L 5.21 3.256 L 5.78 3.046 L 6.11 2.716 L 6.26 2.356 L 6.32 1.666 L 6.14 1.096 L 5.6 0.556 L 5.27 0.346 L 7.04 -2.174 L 5.72 -2.144 L 4.22 0.046 L 3.38 0.016 L 3.35 -2.174 L 2.27 -2.144 z M 11.76 1.886 L 12.9 1.856 L 12.93 1.226 L 13.44 1.676 L 13.89 1.856 L 14.52 1.856 L 15.0 1.586 L 15.36 1.076 L 15.54 0.356 L 15.54 -0.604 L 15.33 -1.234 L 15.0 -1.684 L 14.61 -1.954 L 14.04 -2.134 L 12.9 -2.194 L 12.87 -3.514 L 11.76 -3.484 z M -0.74 1.666 L -0.29 1.846 L 0.34 1.846 L 0.82 1.576 L 1.18 1.066 L 1.36 0.346 L 1.36 -0.614 L 1.15 -1.244 L 0.82 -1.694 L 0.43 -1.964 L -0.14 -2.144 L -1.28 -2.204 L -1.31 -3.524 L -2.42 -3.494 L -2.42 1.876 L -1.28 1.846 L -1.25 1.216 z M 9.227 -2.092 L 8.747 -2.242 L 8.147 -2.182 L 7.757 -1.942 L 7.547 -1.642 L 7.427 -1.162 L 7.427 -0.892 L 7.607 -0.382 L 7.997 -0.052 L 8.537 0.128 L 9.617 0.248 L 9.587 0.788 L 9.317 1.058 L 8.837 1.118 L 7.787 0.788 L 7.817 1.538 L 8.567 1.748 L 9.497 1.808 L 10.097 1.658 L 10.487 1.328 L 10.667 0.878 L 10.727 -1.312 L 10.907 -1.462 L 11.147 -1.492 L 11.147 -2.152 L 10.367 -2.242 L 9.947 -2.092 L 9.617 -1.702 z M -4.01 1.636 L -3.68 1.276 L -3.47 0.796 L -3.35 0.016 L -3.35 -0.374 L -5.69 -0.404 L -5.51 -0.944 L -5.18 -1.244 L -4.7 -1.394 L -3.95 -1.364 L -3.32 -1.184 L -3.35 -1.964 L -4.28 -2.144 L -5.21 -2.144 L -5.93 -1.904 L -6.41 -1.484 L -6.68 -1.034 L -6.83 -0.434 L -6.86 0.226 L -6.65 0.946 L -6.32 1.396 L -5.81 1.726 L -5.3 1.846 L -4.52 1.846 z M -11.75 6.823 L -11.883 6.153 L -12.263 5.586 L -12.83 5.206 L -13.5 5.073 L -14.17 5.206 L -14.737 5.586 L -15.117 6.153 L -15.25 6.823 L -15.117 7.493 L -14.737 8.06 L -14.17 8.44 L -13.5 8.573 L -12.83 8.44 L -12.263 8.06 L -11.883 7.493 z M -11.883 -6.847 L -12.263 -7.414 L -12.83 -7.794 L -13.5 -7.927 L -14.17 -7.794 L -14.737 -7.414 L -15.117 -6.847 L -15.25 -6.177 L -15.117 -5.507 L -14.737 -4.94 L -14.17 -4.56 L -13.5 -4.427 L -12.83 -4.56 L -12.263 -4.94 L -11.883 -5.507 L -11.75 -6.177 z M 11.83 5.206 L 11.263 5.586 L 10.883 6.153 L 10.75 6.823 L 10.883 7.493 L 11.263 8.06 L 11.83 8.44 L 12.5 8.573 L 13.17 8.44 L 13.737 8.06 L 14.117 7.493 L 14.25 6.823 L 14.117 6.153 L 13.737 5.586 L 13.17 5.206 L 12.5 5.073 z M 13.17 -4.56 L 13.737 -4.94 L 14.117 -5.507 L 14.25 -6.177 L 14.117 -6.847 L 13.737 -7.414 L 13.17 -7.794 L 12.5 -7.927 L 11.83 -7.794 L 11.263 -7.414 L 10.883 -6.847 L 10.75 -6.177 L 10.883 -5.507 L 11.263 -4.94 L 11.83 -4.56 L 12.5 -4.427 z M -1.28 -1.394 L -1.1 -1.454 L -0.53 -1.454 L -0.17 -1.304 L 0.1 -0.914 L 0.19 -0.224 L 0.1 0.496 L -0.08 0.856 L -0.41 1.006 L -0.8 0.886 L -1.28 0.436 z M 14.28 -0.904 L 14.37 -0.214 L 14.28 0.506 L 14.1 0.866 L 13.77 1.016 L 13.38 0.896 L 12.9 0.446 L 12.9 -1.384 L 13.08 -1.444 L 13.65 -1.444 L 14.01 -1.294 z M 4.52 0.916 L 4.88 1.096 L 5.12 1.456 L 5.12 1.996 L 4.94 2.296 L 4.58 2.476 L 3.38 2.506 L 3.38 0.856 L 3.92 0.826 z M -9.62 2.476 L -10.82 2.506 L -10.82 0.856 L -10.28 0.826 L -9.68 0.916 L -9.32 1.096 L -9.08 1.456 L -9.08 1.996 L -9.26 2.296 z M 9.167 -0.412 L 8.687 -0.562 L 8.507 -0.862 L 8.537 -1.162 L 8.777 -1.432 L 9.257 -1.432 L 9.587 -1.192 L 9.617 -0.442 z M -4.457 0.839 L -4.667 1.109 L -5.177 1.109 L -5.447 0.869 L -5.627 0.389 L -5.627 0.299 L -4.367 0.269 z"/>
		</g>
		<g id="z 10.522" transform="translate(20.0, 6835.5)">
			<text y="15" fill="#000" stroke="none">Layer 35, z 10.522</text>
			<path transform="scale(3.7, -3.7) translate(30.0, 19.677)" d="M 22.0 -10.763 L 22.0 -19.677 L 30.0 -19.677 L 30.0 20.323 L 22.0 20.323 L 22.0 10.323 L -30.0 10.323 L -30.0 -9.677 L 22.0 -9.677 z M -16.94 -1.574 L -17.33 -0.914 L -17.51 -0.254 L -17.54 0.196 L -17.36 0.976 L -17.0 1.576 L -15.11 3.436 L -13.19 1.486 L -12.92 1.006 L -12.74 0.346 L -12.74 -0.374 L -12.98 -1.094 L -13.46 -1.724 L -14.0 -2.084 L -14.69 -2.324 L -15.65 -2.324 L -16.34 -2.054 z M -11.93 -2.144 L -11.93 3.286 L -8.99 3.256 L -8.42 3.046 L -8.09 2.716 L -7.94 2.356 L -7.88 1.666 L -8.06 1.096 L -8.6 0.556 L -8.93 0.346 L -7.16 -2.174 L -8.48 -2.144 L -9.98 0.046 L -10.82 0.016 L -10.85 -2.174 z M 2.27 3.286 L 5.21 3.256 L 5.78 3.046 L 6.11 2.716 L 6.26 2.356 L 6.32 1.666 L 6.14 1.096 L 5.6 0.556 L 5.27 0.346 L 7.04 -2.174 L 5.72 -2.144 L 4.22 0.046 L 3.38 0.016 L 3.35 -2.174 L 2.27 -2.144 z M 11.76 1.886 L 12.9 1.856 L 12.93 1.226 L 13.44 1.676 L 13.89 1.856 L 14.52 1.856 L 15.0 1.586 L 15.36 1.076 L 15.54 0.356 L 15.54 -0.604 L 15.33 -1.234 L 15.0 -1.684 L 14.61 -1.954 L 14.04 -2.134 L 12.9 -2.194 L 12.87 -3.514 L 11.76 -3.484 z M -0.74 1.666 L -0.29 1.846 L 0.34 1.846 L 0.82 1.576 L 1.18 1.066 L 1.36 0.346 L 1.36 -0.614 L 1.15 -1.244 L 0.82 -1.694 L 0.43 -1.964 L -0.14 -2.144 L -1.28 -2.204 L -1.31 -3.524 L -2.42 -3.494 L -2.42 1.876 L -1.28 1.846 L -1.25 1.216 z M 9.227 -2.092 L 8.747 -2.242 L 8.147 -2.182 L 7.757 -1.942 L 7.547 -1.642 L 7.427 -1.162 L 7.427 -0.892 L 7.607 -0.382 L 7.997 -0.052 L 8.537 0.128 L 9.617 0.248 L 9.587 0.788 L 9.317 1.058 L 8.837 1.118 L 7.787 0.788 L 7.817 1.538 L 8.567 1.748 L 9.497 1.808 L 10.097 1.658 L 10.487 1.328 L 10.667 0.878 L 10.727 -1.312 L 10.907 -1.462 L 11.147 -1.492 L 11.147 -2.152 L 10.367 -2.242 L 9.947 -2.092 L 9.617 -1.702 z M -4.01 1.636 L -3.68 1.276 L -3.47 0.796 L -3.35 0.016 L -3.35 -0.374 L -5.69 -0.404 L -5.51 -0.944 L -5.18 -1.244 L -4.7 -1.394 L -3.95 -1.364 L -3.32 -1.184 L -3.35 -1.964 L -4.28 -2.144 L -5.21 -2.144 L -5.93 -1.904 L -6.41 -1.484 L -6.68 -1.034 L -6.83 -0.434 L -6.86 0.226 L -6.65 0.946 L -6.32 1.396 L -5.81 1.726 L -5.3 1.846 L -4.52 1.846 z M -11.75 6.823 L -11.883 6.153 L -12.263 5.586 L -12.83 5.206 L -13.5 5.073 L -14.17 5.206 L -14.737 5.586 L -15.117 6.153 L -15.25 6.823 L -15.117 7.493 L -14.737 8.06 L -14.17 8.44 L -13.5 8.573 L -12.83 8.44 L -12.263 8.06 L -11.883 7.493 z M -11.883 -6.847 L -12.263 -7.414 L -12.83 -7.794 L -13.5 -7.927 L -14.17 -7.794 L -14.737 -7.414 L -15.117 -6.847 L -15.25 -6.177 L -15.117 -5.507 L -14.737 -4.94 L -14.17 -4.56 L -13.5 -4.427 L -12.83 -4.56 L -12.263 -4.94 L -11.883 -5.507 L -11.75 -6.177 z M 11.83 5.206 L 11.263 5.586 L 10.883 6.153 L 10.75 6.823 L 10.883 7.493 L 11.263 8.06 L 11.83 8.44 L 12.5 8.573 L 13.17 8.44 L 13.737 8.06 L 14.117 7.493 L 14.25 6.823 L 14.117 6.153 L 13.737 5.586 L 13.17 5.206 L 12.5 5.073 z M 13.17 -4.56 L 13.737 -4.94 L 14.117 -5.507 L 14.25 -6.177 L 14.117 -6.847 L 13.737 -7.414 L 13.17 -7.794 L 12.5 -7.927 L 11.83 -7.794 L 11.263 -7.414 L 10.883 -6.847 L 10.75 -6.177 L 10.883 -5.507 L 11.263 -4.94 L 11.83 -4.56 L 12.5 -4.427 z M -1.28 -1.394 L -1.1 -1.454 L -0.53 -1.454 L -0.17 -1.304 L 0.1 -0.914 L 0.19 -0.224 L 0.1 0.496 L -0.08 0.856 L -0.41 1.006 L -0.8 0.886 L -1.28 0.436 z M 14.28 -0.904 L 14.37 -0.214 L 14.28 0.506 L 14.1 0.866 L 13.77 1.016 L 13.38 0.896 L 12.9 0.446 L 12.9 -1.384 L 13.08 -1.444 L 13.65 -1.444 L 14.01 -1.294 z M 4.52 0.916 L 4.88 1.096 L 5.12 1.456 L 5.12 1.996 L 4.94 2.296 L 4.58 2.476 L 3.38 2.506 L 3.38 0.856 L 3.92 0.826 z M -9.62 2.476 L -10.82 2.506 L -10.82 0.856 L -10.28 0.826 L -9.68 0.916 L -9.32 1.096 L -9.08 1.456 L -9.08 1.996 L -9.26 2.296 z M 9.167 -0.412 L 8.687 -0.562 L 8.507 -0.862 L 8.537 -1.162 L 8.777 -1.432 L 9.257 -1.432 L 9.587 -1.192 L 9.617 -0.442 z M -4.457 0.839 L -4.667 1.109 L -5.177 1.109 L -5.447 0.869 L -5.627 0.389 L -5.627 0.299 L -4.367 0.269 z"/>
		</g>
		<g id="z 10.922" transform="translate(20.0, 7026.0)">
			<text y="15" fill="#000" stroke="none">Layer 36, z 10.922</text>
			<path transform="scale(3.7, -3.7) translate(30.0, 19.677)" d="M 22.0 -10.22 L 22.0 -19.677 L 30.0 -19.677 L 30.0 20.323 L 22.0 20.323 L 22.0 10.323 L -30.0 10.323 L -30.0 -9.677 L 22.0 -9.677 z M -16.94 -1.574 L -17.33 -0.914 L -17.51 -0.254 L -17.54 0.196 L -17.36 0.976 L -17.0 1.576 L -15.11 3.436 L -13.19 1.486 L -12.92 1.006 L -12.74 0.346 L -12.74 -0.374 L -12.98 -1.094 L -13.46 -1.724 L -14.0 -2.084 L -14.69 -2.324 L -15.65 -2.324 L -16.34 -2.054 z M -11.93 -2.144 L -11.93 3.286 L -8.99 3.256 L -8.42 3.046 L -8.09 2.716 L -7.94 2.356 L -7.88 1.666 L -8.06 1.096 L -8.6 0.556 L -8.93 0.346 L -7.16 -2.174 L -8.48 -2.144 L -9.98 0.046 L -10.82 0.016 L -10.85 -2.174 z M 2.27 3.286 L 5.21 3.256 L 5.78 3.046 L 6.11 2.716 L 6.26 2.356 L 6.32 1.666 L 6.14 1.096 L 5.6 0.556 L 5.27 0.346 L 7.04 -2.174 L 5.72 -2.144 L 4.22 0.046 L 3.38 0.016 L 3.35 -2.174 L 2.27 -2.144 z M 11.76 1.886 L 12.9 1.856 L 12.93 1.226 L 13.44 1.676 L 13.89 1.856 L 14.52 1.856 L 15.0 1.586 L 15.36 1.076 L 15.54 0.356 L 15.54 -0.604 L 15.33 -1.234 L 15.0 -1.684 L 14.61 -1.954 L 14.04 -2.134 L 12.9 -2.194 L 12.87 -3.514 L 11.76 -3.484 z M -0.74 1.666 L -0.29 1.846 L 0.34 1.846 L 0.82 1.576 L 1.18 1.066 L 1.36 0.346 L 1.36 -0.614 L 1.15 -1.244 L 0.82 -1.694 L 0.43 -1.964 L -0.14 -2.144 L -1.28 -2.204 L -1.31 -3.524 L -2.42 -3.494 L -2.42 1.876 L -1.28 1.846 L -1.25 1.216 z M 9.227 -2.092 L 8.747 -2.242 L 8.147 -2.182 L 7.757 -1.942 L 7.547 -1.642 L 7.427 -1.162 L 7.427 -0.892 L 7.607 -0.382 L 7.997 -0.052 L 8.537 0.128 L 9.617 0.248 L 9.587 0.788 L 9.317 1.058 L 8.837 1.118 L 7.787 0.788 L 7.817 1.538 L 8.567 1.748 L 9.497 1.808 L 10.097 1.658 L 10.487 1.328 L 10.667 0.878 L 10.727 -1.312 L 10.907 -1.462 L 11.147 -1.492 L 11.147 -2.152 L 10.367 -2.242 L 9.947 -2.092 L 9.617 -1.702 z M -4.01 1.636 L -3.68 1.276 L -3.47 0.796 L -3.35 0.016 L -3.35 -0.374 L -5.69 -0.404 L -5.51 -0.944 L -5.18 -1.244 L -4.7 -1.394 L -3.95 -1.364 L -3.32 -1.184 L -3.35 -1.964 L -4.28 -2.144 L -5.21 -2.144 L -5.93 -1.904 L -6.41 -1.484 L -6.68 -1.034 L -6.83 -0.434 L -6.86 0.226 L -6.65 0.946 L -6.32 1.396 L -5.81 1.726 L -5.3 1.846 L -4.52 1.846 z M -11.75 6.823 L -11.883 6.153 L -12.263 5.586 L -12.83 5.206 L -13.5 5.073 L -14.17 5.206 L -14.737 5.586 L -15.117 6.153 L -15.25 6.823 L -15.117 7.493 L -14.737 8.06 L -14.17 8.44 L -13.5 8.573 L -12.83 8.44 L -12.263 8.06 L -11.883 7.493 z M -11.883 -6.847 L -12.263 -7.414 L -12.83 -7.794 L -13.5 -7.927 L -14.17 -7.794 L -14.737 -7.414 L -15.117 -6.847 L -15.25 -6.177 L -15.117 -5.507 L -14.737 -4.94 L -14.17 -4.56 L -13.5 -4.427 L -12.83 -4.56 L -12.263 -4.94 L -11.883 -5.507 L -11.75 -6.177 z M 11.83 5.206 L 11.263 5.586 L 10.883 6.153 L 10.75 6.823 L 10.883 7.493 L 11.263 8.06 L 11.83 8.44 L 12.5 8.573 L 13.17 8.44 L 13.737 8.06 L 14.117 7.493 L 14.25 6.823 L 14.117 6.153 L 13.737 5.586 L 13.17 5.206 L 12.5 5.073 z M 13.17 -4.56 L 13.737 -4.94 L 14.117 -5.507 L 14.25 -6.177 L 14.117 -6.847 L 13.737 -7.414 L 13.17 -7.794 L 12.5 -7.927 L 11.83 -7.794 L 11.263 -7.414 L 10.883 -6.847 L 10.75 -6.177 L 10.883 -5.507 L 11.263 -4.94 L 11.83 -4.56 L 12.5 -4.427 z M -1.28 -1.394 L -1.1 -1.454 L -0.53 -1.454 L -0.17 -1.304 L 0.1 -0.914 L 0.19 -0.224 L 0.1 0.496 L -0.08 0.856 L -0.41 1.006 L -0.8 0.886 L -1.28 0.436 z M 14.28 -0.904 L 14.37 -0.214 L 14.28 0.506 L 14.1 0.866 L 13.77 1.016 L 13.38 0.896 L 12.9 0.446 L 12.9 -1.384 L 13.08 -1.444 L 13.65 -1.444 L 14.01 -1.294 z M 4.52 0.916 L 4.88 1.096 L 5.12 1.456 L 5.12 1.996 L 4.94 2.296 L 4.58 2.476 L 3.38 2.506 L 3.38 0.856 L 3.92 0.826 z M -9.62 2.476 L -10.82 2.506 L -10.82 0.856 L -10.28 0.826 L -9.68 0.916 L -9.32 1.096 L -9.08 1.456 L -9.08 1.996 L -9.26 2.296 z M 9.167 -0.412 L 8.687 -0.562 L 8.507 -0.862 L 8.537 -1.162 L 8.777 -1.432 L 9.257 -1.432 L 9.587 -1.192 L 9.617 -0.442 z M -4.457 0.839 L -4.667 1.109 L -5.177 1.109 L -5.447 0.869 L -5.627 0.389 L -5.627 0.299 L -4.367 0.269 z"/>
		</g>
	</g>
	<!--End Layer Data-->
	
	<!--Button to change from all to single-->
	<g font-weight="bold" font-family="Arial" font-size="15px">
		<text id="buttonSingle" fill="darkslateblue" visibility="hidden" onclick="viewSingle()">[Single View]</text>
		
	<!--Control box for single slice layout-->
		<g id="javascriptControls" visibility="hidden" fill="#000">
			<rect width="510" height="90" stroke="gray" stroke-width="4px" fill="silver"/>	
			<g>
				<path stroke="#000" stroke-width="3" d="M 20 20 h5 l-5 -10 l-5 10 h5 v35 h35 v-5 l10 5 l-10 5 v-5 h-35 z"/>
				<text x="25" y="20">Y</text>
				<text x="69" y="60">X</text>
				<text x="10" y="80" id="buttonAll" onclick="viewAll();" fill="darkslateblue">[Show All]</text>
			</g>
			<g transform="translate(100, 20)">
				<text id="layerMin">1</text>
				<rect id="slider" x="10" y="-12" width="150" height="14" fill="gray"/>
				<circle id="thumb" cx="17" cy="-5" r="7" fill="darkslateblue"/>
				<text x="163" id="layerMax" >5</text>
				<text y="20" x="0">Layer </text>
				<text y="20" x="45" id="layerNum">100</text>
				<text y="20" x="138" onclick="displayLayer(currentLayer-1)" fill="darkslateblue">&lt;</text>
				<text y="20" x="153" onclick="displayLayer(currentLayer+1)" fill="darkslateblue">&gt;</text>
				<text y="40" x="0">Scale</text>
				<text y="40" x="45" id="scaleNum">0.125</text>
				<text y="40" x="138" onclick="changeScale(zoomScale/2)" fill="darkslateblue">&lt;</text>
				<text y="40" x="153" onclick="changeScale(zoomScale*2)" fill="darkslateblue">&gt;</text>
				<text y="60" id="layerThickness" >Layer Thickness: </text>
			</g>
			<g transform="translate(290, 0)">
				<text y="40">X</text>
				<text y="60">Y</text>
				<text y="80">Z</text>
				<text x="20" y="20">Min</text>
				<text id="minX" x="20" y="40">0.0</text>
				<text id="minY" x="20" y="60">0.0</text>
				<text id="minZ" x="20" y="80">0.0</text>
				<text x="80" y="20">Max</text>
				<text id="maxX" x="80" y="40">0.0</text>
				<text id="maxY" x="80" y="60">0.0</text>
				<text id="maxZ" x="80" y="80">0.0</text>
				<text x="140" y="20">Dimension</text>
				<text id="dimX" x="140" y="40">0.0</text>
				<text id="dimY" x="140" y="60">0.0</text>
				<text id="dimZ" x="140" y="80">0.0</text>
			</g>
		</g>
	</g>
	
	<!--No Javascript Control box   -->
	<g id="noJavascriptControls" fill="#000" transform="translate(20.0, 7111.0)">
		<rect width="300" height="110" stroke="gray" stroke-width="4px" fill="silver"/>
		<g transform="translate(10, 0)">
			<g transform="translate(0, 20)">
				<text x="120">Min</text>
				<text x="170">Max</text>
				<text x="220">Dimension</text>
				<path stroke="#000" stroke-width="3" d="M 5 40 h5 l-5 -10 l-5 10 h5 v35 h35 v-5 l10 5 l-10 5 v-5 h-35 z"/>
				<text x="3" y="20" font-weight="bold">Y</text>
				<text x="60" y="80" font-weight="bold">X</text>
				<text x="120" y="80" id="layerThicknessNoJavascript">Layer Thickness: 0.4 mm</text>
			</g>
			<g transform="translate(100, 40)">
				<text>X</text>
				<text id="minXNoJavascript" x="20">-30.0</text>
				<text id="maxXNoJavascript" x="70">30.0</text>
				<text id="dimXNoJavascript" x="120">60.0</text>
			</g>
			<g transform="translate(100, 60)">
				<text>Y</text>
				<text id="minYNoJavascript" x="20">-19.677</text>
				<text id="maxYNoJavascript" x="70">20.323</text>
				<text id="dimYNoJavascript" x="120">40.0</text>
			</g>
			<g transform="translate(100, 80)">
				<text>Z</text>
				<text id="minZNoJavascript" x="20">-3.678</text>
				<text id="maxZNoJavascript" x="70">11.322</text>
				<text id="dimZNoJavascript" x="120">15.0</text>
			</g>
		</g>
	</g>
	<!--End Controls-->
	
</svg>

